<?xml version="1.0" standalone="no"?>
<!DOCTYPE svg PUBLIC "-//W3C//DTD SVG 20010904//EN"
 "http://www.w3.org/TR/2001/REC-SVG-20010904/DTD/svg10.dtd">
<svg version="1.0" xmlns="http://www.w3.org/2000/svg"
 width="853.000000pt" height="1280.000000pt" viewBox="0 0 853.000000 1280.000000"
 preserveAspectRatio="xMidYMid meet">
<metadata>
Created by potrace 1.16, written by Peter Selinger 2001-2019
</metadata>
<g transform="translate(0.000000,1280.000000) scale(0.100000,-0.100000)"
fill="#000000" stroke="none">
<path d="M4920 10240 c-25 -10 -60 -19 -78 -19 -36 -1 -101 -30 -121 -55 -15
-18 -38 -185 -43 -308 -4 -102 8 -93 -158 -128 -116 -25 -151 -39 -174 -72
-42 -59 0 -112 120 -152 44 -14 118 -31 163 -36 88 -10 104 -20 116 -70 7 -32
44 -94 51 -87 3 3 -4 23 -14 44 -26 49 -38 113 -23 113 6 0 11 12 11 28 0 20
3 23 9 13 5 -8 7 -21 3 -29 -4 -11 -1 -14 12 -9 10 4 15 3 11 -3 -3 -6 -1 -10
4 -10 6 0 11 4 11 9 0 5 15 15 33 22 17 7 37 15 42 17 6 3 4 -2 -4 -11 -7 -10
-9 -17 -4 -17 17 0 50 34 46 47 -2 6 1 14 6 18 6 3 11 15 11 26 0 14 -7 19
-29 19 -16 0 -31 6 -35 15 -4 10 1 15 14 15 11 0 20 5 20 10 0 21 30 9 31 -12
2 -23 2 -23 6 -1 4 19 33 54 33 39 0 -3 26 7 59 23 61 31 161 52 161 33 0 -5
-21 -13 -47 -17 -26 -4 -59 -15 -73 -25 -14 -10 -43 -25 -65 -34 -50 -21 -59
-36 -34 -59 10 -10 19 -27 19 -37 0 -15 6 -19 23 -16 12 2 21 9 19 16 -1 6 6
10 15 9 10 -2 27 2 38 8 11 5 33 13 48 17 22 5 27 4 21 -6 -4 -7 1 -5 12 4 10
9 31 20 47 23 15 4 27 12 27 17 0 6 -11 7 -26 4 -15 -4 -23 -3 -20 3 9 14 -20
21 -72 16 l-47 -5 30 14 c17 9 47 15 68 16 20 0 37 5 37 10 0 6 15 10 34 10
27 0 39 -7 61 -36 47 -62 66 -126 64 -219 -2 -64 1 -87 13 -99 20 -19 31 -96
19 -127 -5 -13 -39 -55 -75 -92 -59 -61 -91 -102 -134 -171 -81 -131 -146
-220 -150 -205 -2 8 -11 30 -20 49 -10 21 -17 66 -18 115 l-1 80 10 -52 c8
-41 14 -53 28 -53 11 0 19 -4 19 -9 0 -15 32 -22 47 -10 7 7 38 47 68 89 39
55 52 83 48 98 -3 13 -1 22 6 22 5 0 8 -7 5 -15 -11 -29 4 -15 32 29 19 30 31
41 36 33 5 -8 8 -5 8 8 0 12 6 27 13 34 7 8 7 11 1 8 -8 -5 -8 4 1 31 7 20 15
60 19 87 l7 50 -33 -40 c-37 -44 -54 -62 -119 -120 -66 -60 -75 -66 -106 -71
-15 -3 -29 -9 -31 -15 -5 -13 -39 -11 -48 3 -4 7 -3 8 4 4 7 -4 12 -2 12 3 0
6 -5 11 -11 11 -6 0 -9 9 -6 20 4 16 0 20 -19 20 -26 0 -31 -18 -11 -39 10
-11 9 -12 -2 -6 -11 6 -13 4 -8 -8 10 -26 -6 -20 -39 15 -21 23 -24 29 -10 24
18 -6 18 -5 2 18 -17 27 -13 53 9 53 8 0 12 -4 9 -9 -3 -4 -3 -8 0 -8 2 0 11
-3 19 -6 10 -3 17 3 21 20 4 17 15 26 36 31 16 4 32 11 35 16 7 11 -3 11 -68
0 -41 -7 -47 -6 -45 8 6 28 185 68 221 50 11 -7 17 -6 17 1 0 6 -7 13 -16 17
-8 3 -13 11 -10 18 3 8 -5 13 -20 13 -13 0 -24 -6 -24 -13 0 -6 -27 -17 -64
-23 -81 -15 -81 -15 -83 6 -1 12 11 25 32 35 22 11 37 26 41 44 6 24 8 25 14
8 4 -12 9 -15 13 -8 9 15 -19 43 -44 43 -10 0 -19 -6 -19 -13 0 -23 -37 -49
-58 -43 -24 8 -47 34 -38 43 3 4 12 -1 19 -11 8 -11 21 -16 33 -13 17 4 17 5
-2 6 -18 1 -23 10 -29 49 l-8 47 -12 -30 c-7 -16 -15 -28 -17 -26 -1 3 -10 1
-19 -5 -22 -13 -32 -46 -18 -55 7 -4 9 -14 4 -25 -4 -11 -7 -35 -6 -55 1 -21
-2 -40 -8 -43 -11 -7 -41 31 -41 54 0 9 -6 25 -14 36 -12 16 -12 11 0 -36 8
-30 22 -66 32 -80 32 -44 37 -57 15 -37 -11 10 -28 35 -37 56 l-18 38 -96 6
c-54 4 -167 11 -252 17 -171 11 -461 39 -471 46 -4 2 -62 6 -130 8 -68 2 -169
7 -224 11 -125 9 -133 4 -143 -85 l-7 -65 -85 3 c-47 2 -112 8 -145 13 -33 5
-94 9 -136 9 -82 0 -89 -4 -89 -55 0 -46 30 -53 260 -60 147 -5 155 -6 175
-29 17 -20 32 -25 100 -29 116 -8 298 -27 313 -32 15 -5 16 -119 2 -196 -13
-69 0 -110 43 -134 28 -15 33 -23 34 -58 1 -22 -9 -84 -22 -137 -28 -110 -38
-337 -17 -376 15 -28 7 -34 -42 -34 -60 -1 -182 -53 -228 -97 l-38 -37 0 26
c0 35 -60 88 -101 88 -23 0 -34 -7 -50 -35 -16 -27 -28 -35 -49 -35 -22 0 -36
-10 -63 -47 -48 -64 -120 -134 -186 -177 -55 -38 -71 -43 -71 -25 0 5 -10 3
-22 -5 -30 -21 -38 -20 -39 7 0 22 0 22 -10 -2 -7 -18 -6 -27 3 -33 11 -6 10
-8 0 -8 -7 0 -10 -5 -7 -10 4 -6 11 -8 16 -5 10 7 1 -24 -14 -42 -7 -10 -3
-13 14 -13 19 0 21 -2 9 -10 -9 -6 -10 -10 -3 -10 6 0 15 5 19 11 4 7 25 9 63
4 64 -8 183 -7 218 1 12 4 23 12 23 19 0 7 7 18 15 25 18 15 20 -1 3 -19 -10
-11 -10 -13 0 -7 7 4 12 2 12 -6 0 -9 3 -9 10 2 5 8 10 11 10 5 0 -5 12 8 25
30 28 45 33 40 8 -8 -18 -35 -43 -58 -56 -50 -4 2 -6 -1 -5 -9 5 -23 -65 -47
-167 -57 -162 -16 -285 -56 -285 -92 0 -11 -4 -19 -10 -19 -5 0 -10 11 -10 24
0 49 -21 86 -57 101 -20 8 -47 15 -62 15 -21 -1 -16 -5 23 -20 27 -11 53 -25
58 -32 12 -20 9 -58 -4 -58 -39 2 -122 28 -132 42 -7 10 -25 16 -43 16 -16 -1
-35 2 -42 6 -18 12 -13 -50 8 -94 11 -22 16 -40 12 -40 -15 0 -39 36 -56 85
-10 28 -26 59 -37 70 -18 19 -18 19 -34 -4 -15 -21 -22 -23 -75 -18 -34 3 -73
14 -92 26 -44 27 -57 26 -57 -1 l0 -21 -23 21 c-13 12 -34 22 -48 23 l-24 0
24 10 c24 9 202 -4 222 -17 5 -3 18 0 29 6 12 6 36 12 53 12 18 1 26 3 19 5
-6 3 -10 8 -8 12 3 4 0 8 -7 9 -45 4 -96 15 -122 25 -37 14 -136 14 -195 -1
-25 -6 -65 -15 -90 -19 -40 -7 -45 -11 -48 -37 -3 -22 -6 -26 -13 -15 -6 10
-9 6 -10 -16 -1 -16 -1 -37 0 -46 1 -9 -4 -19 -11 -21 -9 -4 -14 7 -16 36 -2
22 -4 53 -6 68 -2 15 1 25 6 22 5 -3 5 6 1 23 -4 15 -8 97 -8 181 1 123 4 155
15 162 13 8 13 10 0 10 -12 0 -15 8 -12 35 3 23 9 35 20 35 13 0 12 3 -4 21
-15 16 -16 24 -6 39 8 13 9 27 2 44 -6 18 -5 28 6 37 12 10 12 13 -3 25 -14
10 -16 17 -7 31 6 11 8 29 3 47 -5 16 -5 49 -2 73 5 39 8 43 33 43 53 0 158
39 187 70 15 17 34 30 41 30 6 0 26 32 44 71 18 40 34 65 38 59 5 -8 9 -7 13
4 3 8 1 17 -6 20 -8 3 -9 7 -2 13 6 4 10 33 11 63 1 107 15 234 25 241 8 5 8
9 0 13 -12 8 -12 124 -1 131 4 2 8 53 9 112 1 59 5 109 9 110 4 2 5 46 2 98
-7 118 -21 138 -98 138 -28 1 -58 -5 -66 -12 -35 -29 -51 -118 -71 -381 -11
-156 -27 -316 -32 -330 -3 -8 -7 -42 -9 -74 -2 -32 -7 -62 -11 -66 -4 -4 -32
-10 -61 -12 l-54 -5 6 56 c13 115 16 159 16 271 1 63 5 153 10 200 9 80 18
288 24 535 4 169 4 168 21 161 8 -3 15 -1 15 3 0 5 -6 11 -14 14 -9 4 -13 23
-13 60 0 69 -25 115 -78 143 l-40 21 -50 -35 c-77 -54 -88 -78 -98 -207 -9
-106 -20 -175 -29 -175 -5 0 -6 -5 -2 -12 11 -17 4 -180 -16 -378 -5 -52 -12
-129 -15 -170 -3 -41 -9 -106 -13 -145 l-7 -70 -30 3 c-43 5 -51 15 -69 88
-15 58 -15 89 -5 287 13 241 10 263 -35 293 -34 21 -64 13 -110 -31 l-37 -35
-15 -142 c-22 -206 -23 -438 -2 -510 15 -53 42 -101 78 -139 8 -9 42 -24 75
-34 86 -26 105 -41 105 -79 0 -18 -5 -37 -12 -44 -9 -9 -9 -12 1 -12 15 0 6
-97 -15 -147 -8 -20 -9 -35 -3 -38 11 -8 12 -52 1 -59 -5 -3 -7 -19 -4 -36 2
-17 -2 -37 -9 -47 -9 -11 -10 -17 -3 -20 7 -2 8 -22 2 -61 -4 -31 -10 -115
-13 -187 -3 -71 -8 -143 -10 -158 -4 -22 0 -29 20 -37 14 -5 25 -12 25 -15 0
-4 -5 -3 -11 1 -15 9 -2 -34 20 -66 10 -14 21 -34 26 -45 7 -18 9 -17 15 10
l8 30 1 -36 c1 -41 -17 -101 -29 -94 -14 9 -23 -28 -29 -119 l-6 -89 -90 -4
c-64 -3 -86 -1 -75 6 11 8 11 11 2 11 -10 0 -9 7 3 30 9 17 15 55 15 93 0 71
-18 99 -74 113 l-29 7 8 -39 c18 -98 12 -117 -41 -130 -13 -3 -24 -10 -24 -15
0 -22 -38 -5 -68 31 -54 65 -62 88 -61 170 1 85 -22 160 -50 160 -14 -1 -14
-2 2 -14 21 -16 23 -40 2 -32 -18 7 -18 8 -2 -40 7 -22 12 -45 11 -51 -1 -7
-2 -26 -3 -43 0 -16 -10 -39 -21 -50 -18 -18 -28 -20 -73 -14 -29 4 -58 11
-65 17 -10 8 -11 2 -6 -30 6 -40 6 -40 -24 -35 -17 2 -40 -3 -54 -12 -24 -16
-25 -16 -22 16 1 18 5 53 9 78 5 32 3 55 -8 80 -11 24 -16 29 -16 16 -1 -20
-1 -20 -16 0 -14 18 -14 18 -15 -8 0 -18 5 -28 15 -28 9 0 15 -9 15 -25 0 -14
-5 -25 -11 -25 -5 0 -7 5 -4 10 3 6 2 10 -4 10 -5 0 -13 -10 -16 -21 -6 -17
-9 -19 -16 -8 -7 11 -9 11 -9 -3 0 -9 -5 -20 -12 -24 -8 -5 -9 -2 -3 12 5 10
9 36 11 56 2 31 -2 37 -22 42 -13 4 -42 3 -64 0 l-41 -7 22 -23 c12 -13 18
-28 14 -35 -14 -22 -15 -73 -3 -80 10 -6 8 -12 -6 -22 -19 -14 -19 -15 8 -43
24 -26 27 -35 24 -86 -3 -43 -1 -58 9 -58 30 0 10 -18 -28 -24 -22 -4 -50 -16
-62 -29 -24 -24 -24 -14 -18 -267 1 -58 2 -111 2 -118 -1 -16 -35 -8 -71 17
-14 10 -36 21 -48 25 -22 7 -22 7 2 -17 14 -14 30 -43 36 -66 6 -22 15 -41 20
-41 5 0 7 8 3 18 -4 12 0 10 17 -7 23 -23 24 -23 32 -5 7 17 8 16 4 -3 -2 -12
0 -23 6 -25 20 -7 8 -523 -18 -717 l-15 -114 -78 -131 c-110 -183 -173 -297
-168 -302 11 -11 390 -24 722 -24 351 0 726 -15 1003 -41 88 -9 126 -9 134 -1
16 16 21 56 19 152 l-2 85 31 -37 c70 -85 247 -185 379 -214 60 -13 83 -24
109 -50 18 -18 46 -35 62 -39 43 -9 51 -29 9 -21 l-34 6 30 -12 c36 -14 64
-46 65 -74 0 -11 18 -39 40 -62 22 -22 40 -45 40 -51 0 -6 5 -11 11 -11 5 0 8
-4 5 -8 -3 -5 8 -22 24 -37 26 -25 30 -26 30 -10 0 10 3 15 8 11 4 -4 7 -13 7
-19 0 -7 15 -14 33 -17 38 -6 43 -22 10 -32 -39 -11 -126 -9 -134 4 -4 7 -3 8
4 4 7 -4 12 -2 12 5 0 13 -73 3 -78 -11 -2 -5 -10 -6 -19 -3 -11 4 -14 2 -9
-5 5 -8 -4 -12 -29 -12 -20 0 -34 -4 -31 -9 3 -4 54 -11 113 -15 60 -3 113 -7
118 -7 6 -1 19 2 29 7 14 5 17 4 12 -4 -4 -7 -1 -12 8 -12 8 0 17 -6 19 -12 4
-10 7 -10 15 0 7 10 27 11 88 5 103 -10 99 -10 96 6 -2 10 6 12 35 6 43 -8 53
-13 53 -25 0 -5 -14 -4 -31 2 -33 11 -53 3 -29 -13 8 -5 39 -6 68 -3 31 4 52
2 52 -3 0 -8 116 -23 190 -25 8 -1 20 -4 25 -8 6 -4 27 -10 48 -14 20 -4 37
-12 37 -19 0 -7 17 -17 37 -24 37 -11 63 -8 63 8 0 6 9 5 20 -1 11 -6 20 -18
20 -26 0 -8 3 -13 8 -11 4 2 20 -1 37 -8 l30 -13 -36 -34 c-38 -35 -127 -89
-115 -69 5 7 19 16 32 21 31 12 21 40 -15 40 -14 1 -37 7 -51 14 -23 13 -21
14 25 10 37 -3 45 -2 30 5 -14 7 -16 10 -5 11 8 1 4 6 -10 10 -37 12 -110 12
-110 0 0 -6 -10 -8 -24 -4 -13 3 -50 0 -82 -6 -43 -9 -59 -9 -62 -1 -4 13 -52
15 -52 2 0 -4 -28 -8 -62 -8 -35 0 -85 0 -112 -1 -45 -2 -48 -3 -31 -16 17
-12 16 -14 -13 -18 -31 -4 -44 5 -19 15 7 4 8 6 1 6 -17 1 -37 -27 -31 -43 8
-20 100 -39 152 -31 29 4 45 3 45 -4 0 -6 -4 -11 -10 -11 -5 0 -7 -6 -4 -14 5
-13 0 -13 -32 -4 -30 8 -40 7 -48 -4 -6 -8 -21 -14 -33 -14 -17 0 -19 3 -11
13 16 20 6 24 -56 24 -62 0 -126 -17 -126 -33 0 -6 7 -5 17 3 17 13 17 13 1
-12 -11 -17 -13 -31 -7 -40 5 -8 9 -17 9 -21 0 -11 -59 -27 -78 -22 -13 5 -14
4 -3 -4 11 -8 10 -12 -5 -21 -34 -21 23 -2 118 40 55 24 98 37 116 35 21 -3
33 2 46 19 13 17 25 22 44 19 15 -3 31 -9 36 -15 14 -13 54 -11 58 3 5 13 58
18 58 5 0 -4 5 -5 11 -1 19 12 229 16 229 4 0 -5 -17 -21 -37 -34 -21 -13 -49
-33 -62 -45 -13 -11 -40 -23 -60 -26 -88 -14 -113 -27 -189 -97 -98 -91 -129
-131 -143 -181 -9 -32 -8 -43 3 -51 9 -8 13 -37 14 -96 0 -83 15 -139 40 -147
7 -2 13 14 17 39 2 24 11 57 18 73 11 27 13 28 16 9 5 -29 50 -69 93 -83 29
-9 39 -21 59 -66 24 -55 40 -70 42 -37 1 31 9 65 22 91 10 22 19 26 62 27 28
0 64 4 82 8 29 7 34 4 57 -32 26 -42 75 -86 85 -77 3 3 8 27 11 53 4 41 8 47
27 44 27 -4 133 23 196 49 50 21 77 20 77 -3 0 -31 22 -88 34 -88 7 0 22 21
34 48 12 26 32 52 44 58 118 58 123 65 123 173 1 47 5 94 9 103 9 20 70 58 92
58 8 0 13 4 10 9 -3 4 6 6 19 3 27 -5 35 15 10 24 -12 5 -6 13 22 35 21 16 42
29 46 29 5 0 22 -13 38 -30 29 -28 31 -29 54 -14 13 9 30 29 37 45 18 41 82
50 135 21 15 -8 24 -9 28 -1 4 5 17 9 29 7 12 -1 36 5 52 15 l29 18 -25 -22
c-14 -11 -25 -24 -25 -28 -1 -3 -11 -25 -23 -47 -28 -54 -88 -105 -149 -127
-39 -14 -61 -32 -106 -87 -52 -64 -57 -74 -57 -120 0 -74 34 -212 57 -231 14
-12 16 -9 27 44 8 36 31 44 57 21 16 -14 39 -19 92 -21 40 -1 75 -2 78 -2 3
-1 12 -27 18 -58 16 -72 31 -113 41 -113 4 0 23 25 41 56 28 45 38 54 54 49
11 -4 41 -9 67 -12 39 -4 55 -1 91 21 58 33 73 20 64 -55 -6 -51 -6 -51 13
-34 11 10 22 27 26 38 12 39 35 52 93 53 87 1 147 44 167 120 8 31 -12 95 -41
128 -14 16 -25 41 -25 55 0 35 25 114 45 144 8 13 13 31 10 38 -3 8 10 31 30
52 19 20 35 46 35 57 0 13 7 20 18 20 10 0 23 5 30 12 19 19 45 19 36 0 -4 -9
-8 -34 -8 -54 -1 -21 -7 -43 -14 -50 -17 -17 -15 -45 4 -52 17 -6 92 10 109
24 21 17 80 20 100 5 17 -13 18 -19 7 -47 -6 -17 -9 -35 -6 -39 8 -14 30 -11
44 6 16 20 37 19 58 -2 27 -26 72 -85 72 -93 0 -4 -28 -10 -62 -12 -99 -9
-276 -75 -286 -108 -4 -12 -2 -13 9 -4 25 20 151 61 244 79 88 17 91 17 125
-2 24 -14 35 -27 35 -43 0 -32 -48 -47 -188 -59 l-112 -9 137 1 c122 2 140 4
165 23 38 28 40 51 8 84 l-27 28 55 7 c62 8 84 3 121 -26 49 -38 20 -108 -64
-158 -19 -12 -30 -21 -25 -21 16 0 67 34 98 65 35 35 43 67 27 106 -19 45 -44
54 -147 52 l-92 -1 -25 42 c-14 23 -32 48 -40 56 -27 21 -19 47 15 54 17 3 42
6 55 6 13 0 24 3 24 8 0 4 -30 6 -67 5 -59 -2 -76 2 -130 30 -35 18 -63 34
-63 37 0 11 59 40 82 40 12 0 36 -7 51 -15 15 -8 25 -10 22 -5 -4 6 1 10 10
10 9 0 13 -4 10 -10 -3 -6 -1 -10 4 -10 17 0 13 18 -10 50 -13 17 -19 36 -15
47 6 17 5 17 -8 0 -12 -15 -19 -16 -62 -7 -64 15 -131 15 -149 0 -8 -7 -13
-21 -12 -33 1 -15 -8 -26 -33 -39 -47 -23 -53 -22 -38 5 19 36 18 59 -4 54
-10 -3 -18 0 -18 5 0 6 -6 5 -15 -2 -19 -16 -19 -11 6 74 11 39 29 80 39 90
22 22 79 33 232 45 78 6 114 13 135 27 15 10 39 19 53 20 14 1 20 0 14 -2 -7
-3 -9 -14 -6 -26 3 -14 1 -19 -6 -14 -6 3 -13 2 -17 -4 -3 -6 4 -10 17 -10 14
0 33 -7 44 -15 27 -21 53 -18 101 9 23 13 43 20 45 15 2 -5 14 -3 28 4 20 11
28 11 37 2 9 -9 9 -15 0 -24 -8 -8 -3 -11 19 -11 l29 0 -32 -26 c-18 -14 -33
-32 -33 -40 0 -25 42 -16 127 27 l82 41 41 -16 c22 -9 62 -15 88 -15 l47 2
-50 6 c-61 8 -96 26 -89 45 6 16 62 39 75 31 4 -3 25 1 46 10 52 22 116 29
111 13 -3 -7 -15 -19 -29 -25 -13 -7 -19 -13 -14 -13 6 -1 -6 -9 -25 -20 -27
-15 -30 -19 -15 -20 17 0 18 -2 5 -11 -11 -7 3 -8 45 -3 68 8 68 8 115 -3 19
-5 55 -6 80 -2 25 3 36 7 25 8 l-20 2 20 8 c11 5 23 7 28 4 13 -7 8 5 -9 22
-12 11 -13 19 -5 29 6 7 8 16 4 20 -4 4 1 4 11 0 15 -6 17 -4 11 6 -5 8 -4 11
2 7 6 -4 22 2 34 13 l24 19 -35 -9 c-42 -12 -190 -13 -190 -2 0 4 35 14 78 21
128 20 145 29 47 24 -49 -3 -108 -11 -130 -18 -42 -14 -65 -10 -65 10 0 21
-112 29 -156 10 -44 -18 -47 -18 -38 -3 4 7 3 8 -5 4 -9 -6 -9 -11 0 -22 6 -8
7 -14 2 -14 -6 0 -20 -9 -33 -20 -16 -14 -27 -17 -34 -10 -6 6 -16 4 -30 -8
-11 -9 -4 6 15 33 29 42 44 53 90 67 30 10 63 22 74 27 11 5 50 14 87 20 53 9
73 18 100 44 18 17 31 35 30 39 -1 4 8 7 19 5 12 -1 24 5 26 13 4 12 3 12 -5
1 -8 -11 -10 -11 -15 0 -4 11 -7 12 -18 2 -7 -7 -20 -13 -28 -13 -12 1 -10 5
6 19 19 16 20 20 7 25 -9 4 -12 2 -8 -5 4 -8 -1 -9 -16 -4 -14 4 -20 3 -17 -2
4 -6 -5 -8 -21 -5 l-27 5 25 10 c14 5 63 28 109 51 150 73 266 215 328 401 25
74 27 92 27 255 0 142 -3 186 -18 235 -13 41 -15 60 -7 63 14 5 15 32 1 32
-15 0 -12 19 6 37 18 18 15 79 -3 76 -19 -4 -16 7 10 31 36 33 60 87 45 99 -9
6 -8 7 5 3 9 -3 28 0 42 6 21 9 29 8 47 -8 19 -16 20 -16 9 -1 -26 33 -1 30
43 -7 24 -20 46 -36 48 -36 2 0 5 10 5 22 2 18 0 19 -7 8 -8 -13 -12 -12 -27
4 -17 18 -17 19 2 12 28 -10 13 3 -47 38 -35 22 -52 38 -53 54 -1 12 -1 22 -1
22 13 0 118 -48 163 -74 34 -20 63 -36 65 -36 3 0 4 10 4 23 -1 13 -13 30 -31
42 -32 22 -153 75 -170 75 -6 0 -21 7 -34 16 -30 21 -13 33 49 35 l45 2 -47 6
c-59 8 -77 23 -57 47 13 16 12 17 -11 11 -14 -4 -42 -10 -63 -13 -46 -8 -59
-24 -20 -24 l28 -1 -32 -14 c-39 -17 -45 -29 -7 -15 14 6 39 10 55 10 41 0 39
-28 -3 -32 -18 -2 -32 -7 -30 -13 2 -5 -5 -12 -15 -16 -20 -8 -13 -12 38 -23
34 -7 47 -35 16 -33 -12 0 -38 0 -57 -1 -27 -2 -31 -5 -20 -12 13 -8 12 -10
-2 -10 -10 0 -18 -4 -18 -10 0 -5 5 -10 11 -10 5 0 7 -4 4 -10 -3 -5 3 -10 15
-10 12 0 19 -4 16 -9 -3 -4 -16 -6 -29 -4 -16 3 -24 0 -24 -10 0 -9 7 -12 21
-9 19 5 19 4 -3 -26 -32 -46 -101 -61 -115 -26 -4 10 2 14 19 14 27 0 41 15
24 26 -8 4 -9 3 -5 -4 4 -7 3 -12 -2 -12 -14 0 -23 27 -15 46 3 9 -6 4 -21
-11 -25 -25 -28 -26 -51 -11 -13 9 -32 16 -41 16 -21 0 -43 29 -44 57 0 20 36
92 88 175 9 15 31 37 47 50 49 37 52 41 47 66 -3 17 -1 23 7 18 24 -15 9 14
-20 38 -35 30 -39 30 -107 15 -41 -10 -59 -9 -108 6 -32 9 -68 21 -79 26 -11
4 -36 10 -55 11 l-35 4 43 13 c29 10 39 17 30 23 -18 11 -50 10 -43 -2 3 -5
-3 -10 -14 -10 -11 0 -25 9 -31 21 -30 55 -124 124 -139 101 -4 -6 -11 -4 -19
4 -7 8 -9 14 -5 14 4 0 1 5 -7 10 -8 5 -15 13 -15 17 -1 4 -23 29 -49 56 -59
58 -122 77 -251 77 -78 0 -86 -2 -81 -17 4 -10 4 -14 0 -11 -3 4 -17 -6 -31
-23 -14 -16 -28 -27 -33 -24 -12 7 -33 -22 -25 -35 4 -7 17 -9 28 -6 14 3 59
-14 129 -49 77 -40 118 -55 147 -55 22 0 42 -4 45 -8 3 -5 36 -4 75 0 60 8 74
7 108 -11 39 -19 113 -92 113 -110 0 -20 -24 -23 -36 -6 -8 10 -17 15 -21 12
-4 -4 -2 -12 4 -18 7 -7 7 -23 0 -51 -10 -39 -9 -43 19 -65 158 -132 177 -155
168 -201 -4 -17 -9 -30 -13 -29 -4 1 -24 -17 -45 -41 -42 -46 -90 -77 -106
-67 -16 10 0 26 19 20 23 -7 72 31 65 50 -4 11 -12 11 -37 3 -18 -6 -40 -17
-49 -25 -13 -12 -20 -12 -40 -2 l-23 13 25 7 c22 6 20 7 -12 8 -42 1 -59 -14
-26 -22 12 -4 19 -9 16 -13 -4 -3 -23 -1 -43 6 -21 7 -52 10 -69 7 -18 -3 -39
-1 -47 4 -9 6 2 9 36 10 l50 1 -40 8 c-22 4 -50 4 -63 -1 -15 -6 -21 -5 -17 1
3 6 2 10 -4 10 -17 0 -64 20 -59 26 3 2 17 0 31 -5 14 -6 88 -12 164 -15 101
-4 128 -3 99 5 -22 5 -45 18 -52 28 -15 21 -51 24 -105 10 -27 -7 -48 -4 -92
11 -31 11 -77 20 -103 20 -40 0 -45 -2 -34 -15 15 -18 12 -18 -29 -4 -17 6
-31 15 -31 20 0 16 38 29 84 29 53 0 70 17 24 23 -18 3 -6 4 27 3 33 -2 94
-13 135 -25 41 -12 91 -24 110 -25 19 -1 45 -8 57 -14 26 -14 33 -15 33 -4 0
5 -18 16 -40 25 -22 8 -40 12 -40 8 0 -8 -71 10 -190 48 -36 12 -99 24 -140
27 -79 6 -140 27 -140 47 0 9 2 9 8 -1 5 -6 39 -16 78 -21 38 -5 78 -13 88
-17 16 -6 18 -4 13 10 -6 15 -2 17 26 12 l32 -6 -37 18 c-21 10 -46 27 -57 36
-11 10 -28 16 -38 14 -10 -3 -24 1 -31 8 -15 16 -76 13 -111 -6 -21 -11 -23
-10 -17 5 5 14 2 16 -15 12 -17 -5 -20 -2 -16 14 6 24 -25 43 -59 36 -13 -2
-31 1 -40 8 -9 6 -28 9 -43 7 -23 -5 -24 -6 -6 -13 11 -5 -6 -6 -40 -3 -88 8
-88 9 -70 43 8 17 15 32 15 36 0 9 -79 5 -85 -5 -3 -5 -11 -10 -16 -10 -6 0
-7 5 -3 11 4 8 1 8 -13 1 -16 -9 -19 -7 -20 10 -1 12 -7 26 -13 32 -7 6 -11 7
-10 1 4 -21 -1 -29 -9 -16 -8 12 -12 13 -25 1 -9 -7 -19 -10 -23 -7 -3 4 8 14
24 24 28 15 30 21 25 57 -2 23 -6 43 -8 45 -7 8 -52 -10 -87 -34 l-37 -25 -21
21 c-18 18 -19 21 -3 36 9 10 35 26 58 38 23 11 68 48 99 82 l58 61 -23 16
c-37 27 -81 20 -134 -20 l-47 -36 22 31 c22 31 15 44 -9 16 -7 -8 -17 -15 -23
-15 -6 0 6 15 26 34 45 41 49 66 10 66 -16 0 -37 -7 -47 -15 -26 -20 -36 -19
-36 3 0 9 10 22 23 28 12 6 60 32 107 57 73 39 215 92 300 111 14 3 57 14 96
24 99 27 215 35 304 22 94 -15 276 -62 318 -84 17 -9 42 -16 54 -16 23 0 133
-52 253 -120 99 -56 226 -168 241 -214 4 -11 -1 -25 -11 -35 -10 -9 -15 -10
-10 -3 7 13 -29 51 -67 73 -19 10 -24 -1 -8 -17 6 -5 -11 -9 -45 -9 -70 0 -83
-13 -61 -58 20 -43 20 -48 0 -40 -25 9 0 -31 33 -55 28 -20 113 -52 136 -52 7
0 21 -14 31 -32 34 -57 98 -138 106 -133 4 3 8 -1 7 -8 -1 -39 4 -47 32 -47
47 0 53 17 42 112 -5 45 -9 94 -9 108 1 44 -2 50 -21 50 -10 0 -24 7 -31 15
-7 8 -21 15 -31 15 -11 0 -19 5 -19 10 0 6 7 10 17 10 15 0 15 2 -1 19 -17 18
-17 20 0 29 16 9 16 12 4 27 -12 14 -8 21 28 58 22 23 46 55 51 70 16 41 13
103 -4 121 -38 37 -162 51 -285 32 -101 -16 -99 -16 -175 33 -22 14 -44 26
-50 27 -5 1 -22 7 -38 13 l-27 11 34 72 c19 40 42 94 51 120 9 26 28 60 43 76
25 27 27 32 18 85 -7 46 -5 64 9 94 14 28 16 50 11 100 -4 35 -11 76 -17 91
-6 15 -12 50 -13 77 -2 52 -35 131 -95 233 -22 37 -29 60 -25 77 4 16 -3 40
-20 71 -14 26 -26 56 -26 68 -1 46 -26 70 -102 97 -58 21 -75 32 -83 53 -7 21
-6 29 5 37 13 8 12 12 -7 28 -38 32 -254 32 -357 0 -64 -19 -104 -55 -92 -82
3 -7 5 -6 5 3 1 8 10 21 22 28 19 12 20 12 14 -10 -4 -13 -10 -29 -12 -35 -3
-7 0 -13 7 -13 6 0 8 -5 5 -10 -4 -6 -11 -8 -16 -5 -15 10 -10 -22 6 -35 8 -7
15 -17 15 -23 0 -21 -38 41 -58 95 -20 55 -24 131 -6 126 5 -2 8 -6 6 -10 -1
-5 4 -8 12 -8 8 0 21 19 28 43 10 29 21 43 36 45 14 2 23 13 27 34 10 45 12
98 3 98 -5 0 -8 -7 -8 -16 0 -8 -5 -12 -10 -9 -6 4 -8 10 -5 15 3 5 -2 16 -11
24 -8 9 -13 16 -9 16 4 0 -3 12 -14 26 -12 15 -21 39 -21 54 0 22 8 30 40 45
22 10 40 22 40 27 0 5 11 2 24 -7 21 -14 25 -14 47 4 l24 20 -32 -11 c-42 -16
-54 -4 -46 45 5 31 9 36 24 32 11 -4 19 -2 19 4 0 6 -8 11 -17 12 -14 0 -13 2
5 9 36 15 26 33 -39 70 -62 35 -89 70 -89 113 0 20 9 26 56 41 50 16 58 22 74
59 20 47 35 108 23 92 -13 -16 -33 -16 -33 0 0 8 -4 15 -10 15 -21 0 -9 20 13
21 16 1 18 2 5 6 -10 2 -18 9 -18 14 0 14 38 11 43 -3 3 -7 6 1 6 19 1 38 -20
53 -71 52 -32 -1 -32 -1 15 -17 26 -8 47 -20 47 -25 0 -5 -8 -6 -17 -2 -10 4
-33 9 -50 12 -18 3 -33 10 -33 14 0 13 -58 11 -66 -3 -4 -7 -3 -8 4 -4 8 5 10
2 6 -8 -5 -13 2 -16 32 -16 24 0 34 -3 26 -9 -10 -6 -11 -18 -3 -50 7 -34 6
-43 -5 -48 -8 -3 -14 -18 -14 -35 0 -22 -4 -28 -17 -26 -10 2 -19 -5 -21 -16
-4 -21 -25 -46 -39 -46 -4 0 -8 -30 -9 -66 -1 -72 -11 -88 -54 -77 -13 3 -33
15 -44 25 -12 11 -27 16 -39 12 -13 -4 -17 -2 -13 5 14 22 -33 11 -48 -11 -23
-32 -20 -47 7 -41 16 3 18 2 8 -5 -15 -10 -4 -14 89 -28 25 -3 48 -12 52 -18
6 -8 8 -7 8 2 0 20 41 14 47 -8 3 -11 12 -20 19 -20 19 0 18 -19 -1 -26 -12
-5 -13 -10 -4 -20 9 -11 8 -14 -6 -14 -9 0 -19 9 -22 20 -6 24 -41 36 -57 20
-8 -10 -7 -12 4 -8 13 5 15 -5 12 -65 -4 -55 -2 -68 8 -62 9 5 11 4 6 -3 -4
-7 -1 -12 9 -12 9 0 13 -4 10 -10 -3 -5 -10 -10 -14 -10 -16 0 -44 55 -47 90
-1 19 -2 38 -3 43 -1 10 -41 9 -41 -1 0 -5 -7 -17 -15 -28 -14 -17 -14 -15 0
20 21 54 12 56 -14 3 -25 -51 -27 -80 -6 -97 9 -7 23 -28 31 -46 9 -19 21 -34
26 -34 20 0 97 -55 98 -69 0 -11 -4 -9 -14 5 -14 17 -15 16 -11 -23 4 -43 -13
-71 -35 -58 -5 3 -10 -2 -10 -11 0 -12 -14 -3 -48 30 -88 87 -143 110 -252
106 -190 -6 -213 0 -292 81 -36 38 -68 61 -87 65 -17 4 -31 8 -31 9 0 1 11 27
24 56 13 30 29 91 36 136 l12 82 72 35 c39 18 102 46 139 61 88 37 114 61 122
118 11 70 -10 112 -95 198 -93 93 -131 109 -270 109 -92 0 -97 1 -108 24 -14
32 -70 94 -96 108 -36 19 -197 50 -281 54 -63 3 -90 0 -125 -16z m144 1 c4 -5
39 -14 79 -20 179 -28 193 -34 245 -122 l22 -36 -88 -22 c-150 -38 -375 -131
-565 -235 -56 -30 -68 -34 -64 -19 3 10 11 81 17 158 6 77 15 156 19 175 8 42
53 71 111 72 25 0 50 8 66 21 39 30 145 49 158 28z m-3008 -98 c-6 -27 -29
-290 -40 -458 -3 -44 -8 -116 -11 -160 -3 -44 -10 -111 -16 -150 -6 -38 -14
-135 -18 -215 -7 -126 -8 -133 -9 -55 -1 50 5 167 13 260 9 94 22 258 30 365
23 311 37 440 48 440 5 0 7 -12 3 -27z m35 -59 c6 -7 6 -49 0 -105 -5 -52 -12
-161 -16 -244 -6 -149 -16 -315 -35 -555 -20 -256 -40 -835 -40 -1176 0 -48
-2 -85 -5 -82 -3 3 -6 36 -7 74 -1 69 -15 58 -17 -13 -1 -18 -6 -33 -12 -33
-11 0 -11 -1 12 630 16 469 18 513 24 570 2 30 11 159 20 285 17 254 30 421
45 565 5 52 10 104 11 115 l1 20 5 -20 c3 -11 9 -25 14 -31z m3569 -54 c19 -5
49 -21 65 -35 17 -13 48 -39 69 -57 54 -45 80 -107 71 -166 -4 -28 -10 -41
-15 -33 -5 9 -10 10 -14 2 -4 -6 -5 -15 -2 -20 9 -15 -249 -139 -262 -126 -3
2 7 10 22 16 14 7 26 15 26 19 0 4 6 7 14 7 28 0 147 68 183 105 42 43 47 81
16 124 -17 22 -29 28 -67 30 l-46 3 30 -26 c41 -34 31 -40 -22 -14 -24 12 -35
15 -26 8 23 -18 11 -29 -16 -15 -18 9 -18 7 4 -13 32 -32 16 -35 -84 -16 -42
8 -79 11 -81 7 -3 -5 5 -11 17 -14 13 -2 -11 -2 -52 2 -102 9 -251 4 -330 -13
-36 -7 -144 -40 -240 -73 -307 -105 -314 -107 -422 -105 -76 1 -98 -2 -98 -12
0 -8 9 -20 21 -29 19 -13 20 -14 2 -18 -12 -3 1 -11 37 -26 43 -18 47 -21 20
-16 -19 3 -54 17 -77 30 -37 21 -43 29 -43 58 0 19 6 38 13 44 7 7 78 25 158
42 152 31 266 70 418 140 99 47 121 67 26 25 -32 -14 -60 -23 -62 -21 -6 6 75
42 147 66 109 37 165 59 149 60 -9 0 -36 -7 -59 -15 -49 -17 -63 -19 -37 -4
29 17 144 50 242 69 101 20 252 25 305 10z m-3234 -464 c3 -13 3 -53 0 -88 -3
-34 -12 -155 -21 -268 -9 -113 -18 -209 -20 -215 -7 -19 -3 191 4 243 4 29 4
49 0 45 -4 -5 -13 -70 -20 -145 -7 -76 -17 -138 -21 -138 -5 0 -6 21 -3 48 12
97 37 360 41 437 3 44 7 86 9 93 7 20 24 14 31 -12z m1530 -240 c164 -11 646
-56 694 -65 l45 -9 -50 -1 c-37 -1 -46 -4 -35 -11 17 -11 -34 -8 -265 15 -77
8 -184 19 -237 24 -54 5 -102 13 -108 16 -6 3 -56 8 -113 9 -193 6 -326 29
-327 57 0 3 67 -3 148 -12 81 -9 193 -19 248 -23z m-41 -81 c385 -35 575 -55
605 -65 47 -16 -60 -11 -317 15 -136 13 -320 31 -408 40 -216 21 -246 25 -240
34 2 5 22 7 42 5 21 -2 164 -15 318 -29z m1681 -73 c36 -41 54 -52 115 -72 63
-20 78 -21 127 -11 120 24 169 13 264 -62 41 -33 129 -170 148 -232 17 -56 63
-159 72 -163 18 -8 6 -20 -14 -15 -20 4 -19 2 5 -12 35 -21 34 -26 -5 -20 -26
4 -29 3 -13 -4 11 -5 29 -10 41 -10 35 -1 59 -40 55 -89 0 -7 -6 -10 -11 -7
-6 4 -7 11 -4 17 4 7 2 8 -4 4 -7 -4 -12 -2 -12 3 0 18 -76 12 -135 -10 -73
-27 -131 -73 -178 -139 -34 -49 -38 -60 -34 -101 4 -50 30 -94 62 -104 13 -4
16 -8 7 -12 -7 -2 -34 6 -59 19 -50 24 -50 25 -99 181 -16 47 -15 53 12 122 4
12 -8 4 -31 -20 -22 -23 -35 -31 -31 -20 12 27 11 151 -1 255 -9 77 -11 80
-13 35 -5 -80 -3 -187 4 -225 6 -33 6 -32 -13 10 -11 25 -20 61 -21 80 -1 19
-5 44 -10 55 -8 18 -9 17 -9 -7 -1 -39 -17 -43 -31 -8 -14 35 -7 97 21 184 24
75 19 82 -9 13 -25 -61 -42 -141 -42 -206 l-1 -46 -24 45 c-29 54 -34 36 -5
-20 11 -22 20 -42 20 -45 0 -3 -31 27 -70 66 -38 40 -70 66 -70 58 0 -8 19
-29 43 -48 23 -19 62 -58 87 -87 25 -29 62 -63 83 -74 38 -22 46 -41 9 -21
-11 6 -22 8 -25 5 -9 -9 -75 -23 -158 -34 -41 -6 -99 -18 -127 -28 -52 -19
-52 -19 -27 -32 20 -10 28 -11 37 -2 15 15 105 16 114 1 4 -8 28 -9 73 -5 62
6 65 5 46 -10 -28 -22 -78 -44 -155 -66 -61 -17 -62 -18 -20 -14 25 2 56 8 70
14 14 5 27 9 30 9 3 0 25 10 50 23 44 22 45 22 26 1 -11 -11 -25 -21 -31 -21
-7 0 -32 -9 -56 -20 -24 -11 -62 -20 -84 -21 -22 0 -51 -5 -65 -10 -17 -6 -5
-7 40 -4 65 4 188 23 200 30 3 2 12 0 18 -4 29 -17 -160 -110 -227 -112 -21 0
-23 -2 -8 -8 17 -6 16 -8 -10 -20 -15 -7 -52 -15 -82 -19 -44 -4 -50 -7 -32
-14 26 -9 100 7 151 34 19 10 38 18 42 18 5 0 32 11 60 25 29 14 59 23 66 20
7 -2 11 -1 8 4 -3 5 1 12 10 15 8 3 12 2 9 -4 -4 -6 5 -10 20 -10 18 0 24 4
19 13 -4 6 -4 9 1 5 4 -4 14 -3 22 4 7 6 16 9 19 6 8 -9 -68 -61 -156 -106
-89 -46 -137 -81 -91 -67 17 5 22 4 16 -5 -6 -10 -1 -12 19 -8 14 3 26 2 26
-3 0 -15 -19 -19 -46 -9 -24 9 -19 2 28 -47 55 -59 105 -139 93 -151 -3 -4
-22 12 -41 36 -39 47 -58 55 -41 18 7 -13 15 -22 19 -20 13 8 20 -18 7 -28
-10 -7 -8 -8 7 -4 16 5 24 0 32 -19 7 -14 12 -34 12 -43 0 -13 -5 -12 -21 8
l-20 25 6 -37 c9 -55 -7 -46 -35 19 -30 69 -90 147 -128 167 -15 8 -56 19 -90
26 -34 6 -135 35 -226 66 -147 49 -173 54 -251 55 l-87 1 5 46 6 47 -19 -40
c-11 -22 -21 -44 -23 -48 -1 -5 -52 -15 -112 -23 -104 -14 -154 -24 -200 -44
-85 -35 -69 -9 27 43 75 42 156 103 147 112 -3 2 -36 -13 -73 -35 -38 -22 -70
-40 -72 -40 -2 0 9 24 26 53 16 30 30 63 30 75 0 11 10 28 22 36 12 9 17 16
10 16 -6 0 -12 5 -12 11 0 13 78 48 145 65 l50 13 -50 -4 c-38 -4 -45 -2 -27
5 34 14 26 20 -14 8 -20 -5 -39 -7 -42 -3 -3 3 4 8 16 12 12 3 22 10 22 15 0
6 -10 7 -22 4 -13 -4 -30 -8 -37 -10 -8 -1 -17 -8 -19 -14 -2 -7 -9 -9 -15 -5
-7 4 -6 -1 2 -10 11 -15 11 -17 -1 -17 -11 0 -17 19 -23 73 -15 125 -12 140
39 205 80 105 80 102 3 180 -37 37 -67 71 -67 75 0 5 15 7 33 5 19 -2 31 -8
29 -16 -4 -21 25 -25 50 -7 l23 17 -22 -5 c-13 -3 -26 -1 -29 5 -4 6 6 8 22 6
21 -2 30 -9 32 -26 5 -31 21 -36 73 -21 54 15 66 14 106 -17 17 -13 35 -24 40
-24 19 0 82 -71 76 -86 -5 -13 -7 -13 -15 -2 -5 8 -6 2 -2 -17 9 -41 11 -41
19 -5 5 21 12 30 20 26 13 -5 124 134 154 192 7 12 16 20 20 17 5 -2 15 3 22
13 13 15 12 16 -3 3 -70 -54 65 123 144 191 50 42 63 62 81 120 5 15 9 15 43
-3 21 -10 57 -41 80 -67z m-1891 59 c176 -17 313 -31 410 -41 50 -5 149 -14
220 -20 180 -14 215 -20 215 -35 0 -16 -131 -30 -193 -20 -32 5 -38 4 -27 -5
12 -9 6 -10 -25 -5 -22 3 -105 12 -185 19 -364 36 -576 59 -583 66 -4 4 -3 19
3 34 8 22 15 27 33 23 12 -3 72 -10 132 -16z m365 -140 c3 -4 25 -6 50 -5 51
1 106 -22 151 -65 29 -28 29 -29 29 -137 -1 -98 -3 -111 -23 -134 -27 -31 -74
-53 -82 -39 -4 5 -1 8 7 7 14 -3 15 10 3 55 -6 22 -4 27 11 27 16 0 17 2 4 10
-11 7 -16 36 -20 112 l-5 103 -56 -3 c-48 -3 -60 0 -87 23 -39 32 -44 70 -9
59 12 -4 24 -10 27 -13z m826 3 c-4 -12 -1 -14 13 -9 26 8 37 -13 17 -31 -9
-8 -11 -9 -6 -2 12 15 13 28 2 28 -5 0 -14 -12 -20 -26 -7 -14 -8 -23 -3 -19
5 3 13 0 16 -5 5 -8 13 -6 25 5 23 21 38 1 16 -21 -9 -8 -16 -26 -16 -40 0
-13 -5 -24 -10 -24 -6 0 -3 -11 7 -24 l18 -24 7 26 c5 20 6 16 3 -12 -3 -28 2
-46 17 -66 11 -15 18 -33 14 -38 -3 -5 1 -15 9 -22 8 -7 15 -17 15 -22 0 -6
-29 15 -63 45 -35 31 -89 67 -120 80 -51 23 -77 49 -77 76 0 12 121 139 134
140 4 1 5 -6 2 -15z m-821 -86 c19 -13 35 -31 35 -40 0 -21 -4 -22 -33 -6 -20
10 -21 10 -9 -5 8 -9 22 -19 33 -22 10 -4 19 -10 19 -15 0 -5 -8 -7 -17 -3
-16 6 -16 4 1 -15 28 -32 12 -38 -43 -18 -27 9 -59 14 -72 11 -13 -3 -39 -7
-57 -9 -32 -3 -32 -3 -27 33 4 20 8 46 10 57 5 22 39 41 90 47 17 2 31 5 33 6
1 0 18 -9 37 -21z m1 -153 c30 -20 34 -59 4 -51 -11 3 -28 8 -37 11 -10 2 -43
1 -73 -4 -53 -7 -54 -11 -2 -27 6 -2 12 -8 12 -13 0 -12 -68 -26 -78 -17 -3 4
-6 30 -7 58 0 47 2 53 25 59 37 12 128 3 156 -16z m2489 -1 c22 -14 24 -21 18
-57 -4 -29 -3 -38 5 -33 8 5 12 -2 12 -22 l0 -29 55 10 c62 12 70 22 24 31
-26 5 -29 9 -20 20 16 19 50 8 57 -19 10 -40 0 -100 -17 -103 -17 -3 -115 49
-108 58 5 7 -34 50 -46 50 -5 0 -3 -5 5 -10 12 -8 11 -10 -8 -10 -12 0 -31 -5
-42 -12 -10 -7 -22 -10 -25 -7 -9 9 6 40 16 33 5 -3 17 0 26 6 16 9 16 10 -3
8 -12 -2 -32 6 -44 17 -17 15 -23 17 -30 6 -6 -11 -13 -11 -39 0 -38 17 -40
37 -3 44 15 3 45 12 67 19 55 19 72 19 100 0z m-2206 -203 c30 -24 30 -25 13
-52 -16 -25 -129 -149 -137 -149 -6 0 -16 49 -21 115 -6 75 5 98 51 107 14 2
19 10 17 26 l-3 22 24 -22 c14 -13 39 -34 56 -47z m2441 0 c0 -5 13 -14 29
-19 33 -12 76 -56 76 -78 0 -8 5 -13 10 -11 6 1 9 5 8 10 -2 4 2 7 8 7 6 0 9
-8 7 -17 -4 -18 -21 -20 -68 -8 -14 3 -4 -5 22 -19 50 -28 69 -47 50 -54 -7
-2 -12 -17 -12 -33 0 -25 4 -29 29 -29 39 0 57 -24 60 -78 1 -7 4 -11 9 -9 4
3 7 -10 8 -28 0 -26 -3 -32 -15 -27 -13 4 -12 1 3 -16 27 -31 4 -27 -32 6 -34
30 -88 147 -56 121 40 -32 -2 17 -59 70 -48 45 -57 59 -52 78 4 17 2 23 -7 21
-7 -1 -24 4 -38 12 -14 8 -47 26 -74 40 -27 14 -52 31 -54 38 -3 10 4 10 28
-3 38 -19 75 -13 92 15 13 21 28 27 28 11z m-2630 -50 c0 -37 24 -115 60 -195
17 -37 28 -72 24 -78 -4 -6 -3 -8 4 -4 6 3 17 -12 27 -39 19 -49 17 -197 -2
-216 -8 -8 -8 3 -1 36 5 25 7 58 3 73 l-8 27 -7 -25 c-4 -14 -2 -31 3 -37 6
-9 6 -13 -2 -13 -15 0 -36 20 -43 40 -4 11 -9 7 -17 -14 -8 -19 -16 -26 -27
-22 -9 3 -27 6 -41 6 -32 0 -78 49 -87 92 -26 123 -35 199 -27 220 4 13 6 29
4 36 -3 7 -2 32 1 55 l7 42 56 0 c34 0 58 5 60 12 3 9 -5 9 -32 2 -22 -6 -47
-7 -63 -1 -24 8 -19 10 36 16 42 5 60 11 56 18 -4 7 -3 8 4 4 7 -4 12 -20 12
-35z m2158 -107 c13 -4 34 -26 50 -53 14 -25 41 -61 59 -79 38 -38 65 -86 69
-125 2 -15 19 -82 38 -150 36 -126 51 -221 61 -388 l6 -95 -88 3 c-48 2 -99 6
-113 9 -25 6 -25 6 -5 21 20 14 20 14 0 11 -13 -2 -20 3 -23 17 -2 16 -1 17 7
5 9 -12 11 -9 11 15 0 21 -3 26 -9 16 -7 -10 -10 -10 -16 -1 -4 7 -2 15 4 19
10 7 -15 75 -93 245 -13 28 -36 88 -51 134 -16 45 -32 82 -37 82 -5 0 -7 37
-4 83 5 83 3 82 -15 -9 -9 -48 -11 -50 -41 -48 -32 2 -58 25 -58 51 0 7 5 13
11 13 5 0 7 -4 4 -10 -3 -5 -1 -18 4 -27 9 -16 10 -16 11 -2 1 47 -14 108 -24
102 -14 -9 20 44 48 75 23 26 57 47 121 74 47 20 44 19 73 12z m154 -25 c34
-17 98 -59 141 -93 63 -49 84 -71 102 -112 13 -29 21 -62 18 -77 -3 -13 1 -35
7 -48 8 -14 12 -60 12 -122 -1 -91 -4 -103 -34 -157 -18 -33 -34 -57 -37 -55
-2 3 -10 0 -18 -7 -21 -17 -26 -3 -25 71 1 63 -1 68 -18 64 -15 -4 -21 2 -26
23 -11 48 -34 125 -60 198 -19 54 -20 65 -7 55 14 -12 15 -11 8 11 -14 45 -52
114 -94 170 -25 33 -41 65 -41 82 0 16 2 28 5 28 3 0 33 -14 67 -31z m-2122
-59 c-11 -8 -9 -9 10 -5 53 11 155 -80 162 -144 4 -36 -16 -36 -30 1 -6 17
-15 29 -18 25 -4 -4 -2 -12 3 -19 20 -25 24 -86 9 -122 -8 -20 -20 -36 -27
-36 -8 0 -6 7 5 19 16 18 16 22 2 49 -25 49 -40 52 -33 6 6 -36 5 -37 -8 -20
-15 19 -15 19 -17 -5 0 -13 0 -33 0 -44 2 -14 -1 -16 -6 -7 -6 8 -13 1 -22
-23 -8 -20 -21 -35 -30 -35 -9 0 -21 -5 -27 -11 -8 -8 -8 3 -1 38 9 44 6 102
-7 178 -3 17 -17 53 -30 80 -13 28 -24 55 -25 60 -1 9 40 19 90 23 13 2 13 1
0 -8z m2633 -213 c-3 -6 -1 -7 5 -3 29 18 92 -61 92 -115 0 -27 -20 -23 -21 4
-1 13 -6 3 -13 -23 -8 -29 -15 -40 -20 -32 -6 11 -11 11 -24 0 -12 -10 -14
-10 -8 -1 4 7 2 21 -3 30 -9 16 -10 15 -11 -6 0 -39 -11 -17 -19 41 -5 29 -12
62 -16 72 -6 13 -5 17 3 12 6 -3 13 -2 16 3 4 5 -3 13 -15 16 -15 5 -18 9 -9
15 17 10 51 0 43 -13z m-935 -75 c53 -4 65 -8 72 -26 4 -11 22 -55 39 -97 18
-41 30 -82 28 -90 -2 -8 -2 -11 0 -7 11 19 102 -181 117 -257 l7 -30 -65 -13
c-36 -6 -71 -9 -79 -6 -18 7 -30 81 -21 129 3 19 17 44 30 54 13 10 24 23 24
29 0 6 4 12 9 14 5 2 3 17 -4 33 -12 26 -13 27 -14 8 -1 -18 -10 -25 -43 -33
-24 -6 -67 -22 -95 -36 l-53 -25 -1 -57 c-1 -31 -1 -77 1 -102 l2 -44 -47 54
c-71 83 -85 117 -88 215 -2 46 0 82 4 79 7 -4 32 57 34 81 0 6 5 19 11 30 6
11 17 41 25 68 10 36 17 46 29 41 8 -4 43 -9 78 -12z m-2053 -41 c44 -11 138
-40 210 -65 75 -27 147 -46 171 -46 24 0 55 -5 70 -10 43 -17 149 -90 164
-113 21 -35 89 -220 84 -229 -9 -15 -19 -8 -49 37 -16 25 -36 47 -43 50 -8 3
-6 -6 6 -23 11 -15 23 -41 26 -59 7 -30 0 -25 -85 57 -51 50 -95 87 -98 84 -3
-3 -1 -8 5 -12 5 -4 30 -29 55 -56 32 -36 37 -45 17 -32 -14 9 -29 23 -31 30
-3 8 -20 24 -37 36 -26 19 -21 9 26 -50 33 -40 58 -80 56 -89 -1 -10 4 -36 13
-60 8 -24 15 -45 15 -46 0 -2 -32 13 -72 33 -43 21 -89 55 -117 84 -25 27 -51
46 -58 44 -6 -3 -17 3 -25 12 -12 15 -11 16 5 3 34 -27 16 -4 -44 54 -34 33
-59 54 -55 48 4 -7 3 -13 -3 -13 -5 0 -13 9 -16 20 -5 17 -25 29 -25 15 0 -3
36 -44 80 -92 73 -80 98 -100 209 -171 28 -18 30 -22 11 -17 -14 4 -37 8 -52
9 -14 0 -24 4 -22 8 3 4 -19 20 -48 35 -69 36 -78 39 -49 14 29 -26 18 -28
-15 -2 -14 11 -19 21 -13 23 6 2 -9 21 -35 41 -59 49 -116 135 -116 175 0 40
-40 131 -70 157 -21 18 -21 17 3 -19 32 -46 35 -64 41 -236 5 -160 -8 -221
-17 -78 -3 63 -11 105 -21 119 -30 44 -99 110 -130 125 -22 12 -13 0 34 -44
36 -33 62 -63 57 -68 -4 -4 -22 6 -40 24 -62 60 -176 87 -241 57 -40 -19 -49
-39 -13 -30 41 10 102 8 132 -4 17 -7 44 -15 60 -18 42 -8 65 -21 65 -37 0 -8
7 -19 15 -26 8 -7 24 -43 37 -81 22 -68 22 -69 4 -126 -19 -59 -56 -126 -78
-139 -6 -4 -2 8 10 28 28 45 28 65 0 38 -31 -29 -33 -18 -3 25 14 21 25 45 25
54 0 9 -12 -4 -26 -29 -14 -25 -42 -65 -61 -89 l-36 -43 -19 38 c-23 48 -23
51 2 29 35 -32 21 -3 -16 33 -31 30 -54 40 -148 64 -105 27 -258 49 -245 34 6
-7 104 -34 203 -56 57 -13 136 -60 136 -80 0 -6 12 -29 26 -52 20 -31 22 -39
10 -35 -12 5 -22 -3 -36 -26 l-20 -32 0 37 c0 56 -65 120 -145 143 -33 9 -89
25 -125 35 -36 10 -85 21 -110 25 -58 8 -130 28 -130 36 0 3 20 6 45 7 25 0
58 8 73 17 40 26 82 67 82 81 0 17 66 83 117 118 45 30 69 54 61 61 -2 2 -21
-7 -42 -22 l-39 -26 20 39 c11 22 35 71 54 109 40 81 72 104 191 135 92 24 96
24 193 1z m1155 -66 c58 -20 120 -41 138 -46 17 -6 32 -13 32 -16 0 -13 -92 6
-112 23 -20 19 -21 19 -13 -6 7 -22 6 -23 -7 -12 -9 7 -71 24 -139 38 -128 27
-159 37 -159 56 0 22 150 1 260 -37z m-150 -49 c52 -9 118 -20 145 -25 28 -5
109 -12 180 -16 74 -4 146 -14 167 -22 48 -19 104 -95 135 -183 27 -78 29
-108 4 -60 -20 37 -110 134 -118 126 -2 -2 -32 7 -65 21 -75 30 -86 25 -15 -8
28 -13 58 -31 65 -39 8 -8 11 -9 7 -2 -15 29 16 9 46 -30 46 -61 51 -66 43
-44 -5 13 -4 17 4 12 6 -4 16 -25 22 -46 6 -22 16 -39 22 -37 7 1 12 -20 14
-58 l3 -60 -10 53 c-6 28 -15 52 -20 52 -8 0 -5 -29 7 -68 2 -7 -1 -10 -6 -7
-6 3 -10 12 -10 19 0 40 -108 164 -131 150 -4 -2 -10 0 -14 6 -3 5 -11 10 -16
10 -6 0 1 -14 16 -31 34 -41 26 -46 -22 -17 -49 30 -94 50 -100 44 -3 -3 17
-16 44 -30 40 -20 55 -35 79 -83 17 -32 34 -71 37 -88 l7 -30 -15 28 c-9 15
-20 27 -25 27 -16 0 -23 2 -47 11 -18 7 -16 1 15 -41 33 -45 49 -90 31 -90 -5
0 -11 11 -15 24 -4 16 -11 23 -20 19 -16 -6 -44 13 -44 30 0 7 4 7 12 -1 7 -7
19 -12 28 -12 18 1 -28 29 -48 30 -17 0 0 -34 35 -71 16 -17 21 -29 14 -34 -6
-3 -14 1 -18 10 -5 16 -7 16 -15 1 -5 -9 -6 -21 -2 -28 5 -7 -1 -9 -19 -6 -15
3 -24 1 -21 -3 3 -5 1 -9 -5 -9 -5 0 -22 15 -36 34 -14 19 -34 37 -43 41 -13
5 -14 4 -5 -6 8 -8 9 -17 3 -24 -6 -8 -5 -18 4 -30 13 -18 9 -21 -43 -46 l-56
-28 -26 31 c-14 17 -31 28 -37 24 -6 -3 -25 6 -44 21 -18 14 -7 -1 25 -34 l59
-60 -31 -22 c-17 -12 -31 -18 -31 -12 0 6 -5 11 -11 11 -6 0 -38 21 -71 46
-33 25 -57 41 -53 35 9 -15 -8 -14 -25 2 -12 10 -12 9 -1 -5 7 -10 19 -18 26
-18 7 0 41 -22 76 -50 62 -48 89 -60 89 -41 0 15 104 60 163 72 97 20 417 -46
417 -85 0 -18 -39 -76 -50 -76 -6 0 -18 13 -28 29 -9 16 -28 36 -43 45 -37 22
-46 20 -18 -4 31 -25 23 -25 -26 0 -22 11 -33 20 -25 20 33 1 -16 18 -75 26
-136 19 -225 3 -225 -40 0 -12 -5 -27 -12 -34 -9 -9 -9 -12 0 -12 7 0 12 -14
12 -33 0 -40 27 -136 44 -157 21 -24 30 -44 19 -37 -6 4 -27 31 -47 61 -35 53
-46 84 -26 71 18 -11 10 11 -10 30 -11 10 -20 13 -20 7 0 -6 5 -14 10 -17 6
-4 7 -11 3 -18 -3 -6 -8 -38 -11 -71 -2 -37 -14 -84 -29 -117 l-26 -57 -61 1
c-34 1 -52 3 -41 5 47 9 123 108 131 170 15 108 -9 168 -89 223 -91 63 -105
70 -111 61 -3 -5 33 -40 79 -77 82 -66 103 -93 90 -115 -9 -14 -35 2 -114 66
-116 94 -129 104 -137 104 -4 0 5 -13 21 -30 16 -16 25 -30 21 -30 -4 0 14
-21 40 -47 26 -27 46 -49 45 -50 0 -2 -1 -9 -1 -15 0 -9 3 -9 9 1 5 8 7 21 3
29 -4 10 -1 13 7 8 7 -5 10 -14 7 -21 -2 -7 4 -30 15 -51 19 -39 24 -64 12
-64 -3 0 -22 12 -42 27 -20 15 -30 20 -22 10 7 -9 11 -23 8 -32 -4 -8 -1 -17
5 -21 7 -5 8 -2 3 6 -5 8 -3 11 5 8 17 -5 22 -38 6 -38 -7 0 -32 15 -56 32
-33 25 -42 28 -37 14 6 -16 3 -18 -28 -12 -48 9 -44 1 12 -24 25 -11 44 -23
41 -26 -3 -2 -22 2 -42 11 -20 8 -52 22 -71 30 -41 17 -47 2 -7 -20 l27 -16
-35 6 -35 6 35 -20 c19 -11 46 -20 60 -21 14 0 32 -5 40 -10 11 -8 7 -9 -14
-4 -22 5 -27 4 -21 -6 6 -9 -1 -8 -21 3 -16 9 -43 20 -61 26 -26 8 -31 7 -27
-4 4 -10 0 -12 -15 -8 -16 4 -19 1 -14 -16 3 -11 2 -41 -2 -66 -7 -51 -16 -57
-97 -69 l-46 -7 9 39 c4 21 27 89 49 150 23 62 39 116 36 121 -4 5 10 39 29
76 40 74 29 78 -16 6 -29 -46 -54 -115 -50 -138 1 -7 -5 -13 -13 -13 -14 0
-37 -46 -42 -85 -2 -11 -8 -45 -13 -75 -9 -52 -9 -50 -8 42 0 53 4 95 9 92 4
-3 8 3 8 13 0 10 7 30 16 43 9 14 2 9 -15 -10 -37 -43 -46 -81 -37 -173 8 -82
-4 -80 -24 4 -17 76 0 230 34 297 13 26 31 72 41 102 9 30 35 91 56 135 32 66
35 75 14 50 -51 -61 -74 -101 -86 -150 -6 -27 -15 -59 -20 -70 -15 -37 -9 47
6 90 17 47 17 45 7 45 -11 0 -32 -83 -33 -133 l-1 -42 -14 53 c-13 45 -13 60
0 107 15 60 85 166 138 209 41 34 160 113 190 127 13 5 34 16 48 24 14 8 35
15 48 15 12 0 22 4 22 8 0 5 -25 5 -55 1 -53 -7 -96 -27 -160 -74 l-30 -22 3
61 c3 60 3 62 -38 104 -23 23 -47 41 -53 40 -7 -1 -29 15 -50 35 -43 41 -32
47 34 18 106 -46 125 -53 150 -56 15 -1 41 -10 59 -19 44 -21 62 -8 19 15 -44
24 -274 99 -302 99 -12 0 -28 4 -35 9 -17 11 26 20 133 28 51 4 83 11 88 20
10 16 101 12 247 -11z m2047 -18 c19 -9 22 -17 18 -57 -2 -28 -8 -45 -15 -43
-6 1 -9 -2 -5 -8 11 -18 -4 -46 -27 -47 -28 -3 -48 14 -49 41 0 20 -1 21 -9 1
-7 -16 -9 -11 -9 21 -1 23 6 58 14 78 17 39 27 41 82 14z m-63 -238 c5 -5 3
-19 -6 -32 -9 -13 -19 -43 -23 -68 -7 -44 -24 -70 -44 -70 -6 0 -11 -5 -11
-11 0 -5 5 -7 12 -3 7 4 8 3 4 -5 -4 -6 -12 -8 -18 -5 -6 4 -23 7 -38 6 -24 0
-29 4 -34 34 -4 18 -2 42 4 53 16 31 13 46 -7 30 -16 -12 -17 -12 -6 2 7 9 9
20 5 25 -4 4 0 4 8 -1 8 -6 23 -10 32 -10 18 0 58 45 58 65 0 13 48 6 64 -10z
m-3688 -190 c55 -17 109 -35 122 -41 28 -11 19 -33 -10 -23 -11 3 -23 2 -27
-3 -3 -5 -22 -15 -41 -21 -32 -11 -29 -11 35 -7 39 2 77 0 85 -5 13 -8 12 -10
-2 -10 -10 0 -18 -7 -18 -16 0 -9 -5 -12 -12 -8 -7 4 5 -9 27 -28 22 -20 36
-40 32 -44 -4 -5 -12 -2 -17 6 -6 8 -10 11 -10 5 0 -5 -6 -3 -13 5 -24 31 -88
67 -72 40 13 -21 -15 -9 -54 24 -23 19 -78 50 -124 68 -76 30 -90 33 -182 31
l-100 -2 50 14 c28 8 68 21 90 29 63 23 132 19 241 -14z m1141 -132 c44 -17
53 -23 35 -26 -12 -2 -20 -7 -17 -12 3 -5 -41 -9 -97 -9 -84 -1 -105 -4 -115
-17 -18 -25 -7 -34 40 -34 39 0 155 -25 166 -35 10 -11 -9 -12 -94 -4 -49 5
-100 14 -113 21 -31 16 -42 -2 -41 -67 1 -27 -2 -69 -6 -91 -5 -30 -2 -57 10
-95 20 -58 21 -149 3 -182 l-11 -21 -8 22 c-5 13 -22 30 -39 40 -18 10 -28 23
-25 31 4 9 0 11 -10 7 -13 -5 -15 4 -9 62 3 37 15 97 25 133 11 37 21 86 22
110 2 47 5 46 -100 65 -16 3 -20 9 -16 26 12 48 99 95 155 84 22 -4 28 -3 19
3 -11 7 -4 11 25 14 65 8 140 -2 201 -25z m-2272 -75 c-3 -38 -15 -124 -26
-192 -11 -68 -22 -154 -25 -190 -3 -36 -12 -109 -19 -161 -8 -52 -21 -172 -30
-265 -9 -94 -23 -226 -31 -295 -8 -69 -14 -150 -14 -182 0 -50 3 -59 27 -78
18 -14 37 -20 55 -18 37 6 36 -6 -7 -99 l-35 -75 -236 3 -235 4 6 45 c11 77
16 88 47 101 49 20 59 48 74 197 7 75 20 216 29 312 9 96 28 275 41 398 13
123 24 248 24 279 l0 55 -41 16 c-40 15 -40 16 -33 56 3 23 7 41 8 41 0 0 19
10 41 22 34 18 91 33 320 86 11 3 31 5 44 6 23 1 23 0 16 -66z m-482 1 c-1
-10 -7 -85 -14 -166 l-12 -148 -28 0 c-19 0 -30 6 -34 20 -4 11 -18 28 -31 37
-22 14 -46 15 -181 9 -86 -3 -159 -9 -162 -11 -2 -3 -10 -67 -17 -142 -7 -75
-16 -149 -19 -165 l-7 -28 74 0 c115 0 247 25 341 65 21 9 22 -4 3 -128 -8
-50 -18 -125 -21 -165 -4 -39 -11 -74 -15 -77 -4 -3 -43 4 -85 15 -79 20 -305
29 -305 13 0 -5 -7 -80 -15 -168 -8 -88 -15 -168 -15 -177 0 -16 13 -18 128
-18 155 0 220 16 270 66 19 19 36 34 38 34 2 0 15 -18 30 -41 30 -47 34 -30
-64 -253 l-57 -129 -398 5 c-219 3 -402 9 -407 14 -10 11 16 90 39 120 9 12
28 37 44 56 31 40 41 97 56 343 5 83 20 282 32 442 12 161 18 309 15 328 -5
25 -15 39 -32 47 -25 12 -25 13 -18 87 3 42 7 77 8 78 9 11 263 36 451 43 132
6 267 11 300 13 95 5 110 2 108 -19z m1532 -129 c39 -8 97 -26 131 -40 l61
-26 -13 -49 c-7 -27 -20 -95 -30 -152 -23 -142 -26 -148 -69 -148 -32 0 -35 3
-35 28 0 77 -109 157 -215 156 -95 0 -159 -28 -238 -105 -110 -110 -167 -262
-167 -447 0 -179 72 -313 198 -373 113 -54 240 -41 355 36 47 32 51 33 73 18
13 -8 24 -16 24 -18 0 -12 -43 -121 -63 -160 -55 -107 -105 -154 -204 -191
-199 -74 -436 -13 -593 153 -144 151 -193 315 -172 578 26 330 187 567 467
688 146 63 338 84 490 52z m662 -77 c-3 -18 -9 -55 -12 -83 -3 -27 -19 -129
-36 -225 -16 -96 -31 -185 -33 -196 -3 -20 2 -19 48 14 94 66 203 87 304 57
67 -20 104 -53 132 -117 21 -49 22 -63 17 -173 -3 -66 -13 -151 -21 -190 -17
-79 -34 -212 -43 -331 l-6 -82 37 -13 c41 -15 41 -16 15 -112 l-10 -39 -97 6
c-53 3 -157 9 -229 12 -94 5 -133 10 -133 19 0 35 33 112 59 139 32 33 38 61
76 341 27 202 29 253 11 280 -20 31 -61 33 -115 5 -67 -34 -74 -51 -103 -241
-59 -386 -59 -401 -4 -407 30 -4 32 -12 10 -75 l-16 -47 -61 0 c-33 0 -113 5
-176 10 -64 6 -143 13 -177 16 l-61 5 7 44 c8 50 30 88 76 130 32 29 34 35 53
170 32 222 68 501 81 615 6 58 18 145 26 194 14 80 14 90 -1 106 -10 11 -24
16 -37 12 -18 -4 -20 -2 -13 29 4 19 11 42 16 51 13 24 136 59 334 96 87 16
88 16 82 -20z m3538 -68 c7 -14 18 -36 24 -50 7 -14 27 -50 46 -80 21 -32 35
-67 35 -85 l-1 -30 -25 28 c-14 16 -22 36 -20 45 3 10 1 24 -5 32 -8 12 -9 9
-4 -10 l6 -25 -23 28 c-36 41 -42 32 -12 -18 14 -25 24 -49 20 -52 -3 -3 -10
5 -15 19 -11 30 -81 98 -118 114 -16 7 -23 13 -16 13 18 1 53 42 53 61 0 19
20 42 33 37 5 -1 14 -14 22 -27z m-255 -196 c32 -13 46 -14 71 -5 47 16 74 14
94 -9 21 -23 22 -22 -25 -45 -31 -16 -34 -16 -21 -1 23 27 6 29 -26 2 -28 -24
-43 -25 -43 -4 0 5 10 13 23 18 16 7 12 8 -19 4 -27 -4 -51 -1 -70 9 -16 8
-40 18 -54 22 -24 7 -24 7 -5 -9 25 -20 18 -20 -36 -1 -24 9 -55 13 -69 10
l-25 -5 24 21 c21 17 33 19 83 14 32 -3 76 -13 98 -21z m-2173 -84 c86 -12
251 -56 271 -72 21 -18 5 -20 -27 -4 -17 9 -34 16 -38 15 -25 -4 -53 2 -48 11
3 6 -2 11 -12 11 -285 21 -393 17 -530 -18 -62 -16 -113 -26 -113 -22 0 11 94
48 162 63 115 27 217 31 335 16z m933 -6 c310 -51 442 -160 457 -380 11 -156
-79 -334 -214 -423 -81 -54 -166 -74 -325 -75 -130 -1 -139 -2 -143 -21 -13
-62 -35 -217 -35 -244 0 -25 6 -34 26 -42 15 -5 35 -7 45 -4 23 8 23 5 2 -107
l-17 -90 -41 6 c-22 3 -139 13 -260 22 -121 9 -221 17 -223 19 -1 1 2 23 7 48
7 37 21 60 69 111 51 55 62 73 70 118 14 80 52 311 67 418 17 114 41 252 65
380 10 52 16 98 14 102 -3 5 -18 8 -33 8 -15 0 -30 3 -33 6 -3 3 4 34 15 69
l21 64 50 10 c28 6 74 12 101 14 60 5 266 -1 315 -9z m-860 -126 c47 -15 77
-34 111 -68 82 -82 86 -140 33 -471 -48 -305 -50 -331 -29 -349 13 -11 23 -11
46 -3 16 6 29 8 29 3 0 -14 -43 -104 -73 -153 l-30 -50 -71 6 c-127 11 -200
44 -218 98 -2 6 -31 -3 -68 -22 -58 -30 -74 -33 -150 -33 -71 -1 -94 4 -140
25 -77 36 -124 80 -157 147 -76 157 6 341 193 435 68 34 168 57 281 64 l92 6
6 41 c8 48 -6 91 -34 105 -11 6 -48 11 -83 11 -72 0 -150 -31 -231 -94 -27
-21 -50 -36 -52 -34 -1 2 -5 62 -8 134 l-6 130 59 28 c102 46 193 65 321 65
93 1 128 -3 179 -21z m1910 -284 c87 -19 193 -91 239 -160 63 -96 91 -234 72
-362 -34 -229 -154 -396 -342 -474 -46 -18 -74 -22 -189 -22 l-135 -1 -70 40
c-100 56 -159 115 -201 200 -72 146 -69 304 7 468 118 250 357 371 619 311z
m-3244 -984 c6 0 17 7 24 15 17 21 28 19 32 -7 2 -16 13 -25 38 -32 19 -5 42
-19 50 -30 20 -27 31 -69 21 -76 -5 -3 -5 -16 0 -29 8 -19 12 -21 24 -11 21
18 27 9 16 -26 -23 -71 -22 -93 4 -110 14 -9 41 -22 60 -28 l34 -12 -59 -12
c-40 -9 -60 -18 -60 -27 0 -36 -115 -6 -128 33 l-7 23 -30 -23 c-24 -18 -28
-19 -22 -5 5 12 3 16 -5 11 -7 -5 -9 0 -6 14 5 16 2 22 -11 22 -9 0 -22 5 -29
12 -9 9 -5 16 13 33 l25 21 -35 16 c-28 12 -35 13 -35 2 0 -7 -7 -17 -16 -22
-22 -12 -2 -50 31 -58 34 -8 21 -31 -22 -36 -47 -6 -152 9 -170 23 -20 17 -16
26 17 45 29 18 29 18 10 36 -11 11 -20 26 -21 36 0 10 -3 12 -6 5 -2 -7 -9
-13 -14 -13 -6 0 -8 4 -5 9 6 10 -16 21 -41 21 -24 0 -143 100 -143 120 0 28
-27 45 -46 29 -14 -12 -14 -14 5 -21 12 -4 21 -12 21 -17 0 -16 -41 1 -73 30
-20 19 -43 29 -62 29 -16 0 -37 5 -45 10 -11 8 4 10 51 9 36 -1 71 1 77 5 16
9 54 -3 47 -15 -3 -5 0 -6 8 -3 10 3 25 -11 43 -40 31 -49 96 -89 167 -101 35
-6 50 6 27 20 -13 8 32 45 54 45 9 0 19 -6 22 -14 8 -21 -14 -57 -33 -54 -9 2
-18 -2 -20 -8 -2 -8 12 -10 47 -6 32 3 55 0 65 -8 12 -10 18 -10 30 0 19 16
12 26 -23 33 -16 3 -29 12 -29 20 0 9 7 13 21 9 19 -5 19 -3 -4 17 l-25 21 27
-6 c17 -4 35 0 50 10 12 9 30 16 40 16 11 0 18 8 18 20 0 21 -24 27 -50 10
-10 -6 -20 -4 -32 7 -23 20 -23 33 0 61 l17 22 30 -35 c17 -19 35 -35 41 -35z
m1133 -15 c46 -24 55 -25 113 -15 93 15 97 13 61 -20 -18 -16 -33 -34 -33 -40
0 -5 -4 -10 -10 -10 -22 0 -8 -17 23 -28 22 -8 45 -8 72 -2 52 12 49 13 72 -7
11 -10 18 -25 15 -33 -5 -13 -3 -13 11 -1 15 12 16 10 13 -20 -4 -34 7 -59 27
-59 6 0 2 7 -9 15 -18 14 -17 14 9 4 15 -7 27 -16 27 -21 0 -13 64 -9 79 5 11
9 11 7 0 -10 -12 -21 -19 -22 -69 -17 -30 3 -61 11 -67 16 -10 8 -13 6 -13 -7
0 -10 8 -24 18 -31 15 -12 14 -13 -13 -11 -42 5 -69 21 -127 79 -47 46 -55 51
-109 55 -50 5 -59 3 -59 -11 0 -12 -10 -16 -45 -16 -25 0 -45 -4 -45 -10 0 -5
7 -7 16 -3 12 4 14 0 9 -18 -9 -42 32 -74 71 -57 18 9 33 6 70 -13 54 -27 67
-48 35 -56 -12 -3 -21 -9 -21 -14 0 -5 -12 -9 -27 -9 -16 0 -37 -7 -47 -15
-10 -8 -22 -12 -26 -10 -4 3 -13 -2 -20 -10 -6 -7 -18 -11 -27 -8 -11 5 -14 1
-9 -13 5 -16 0 -19 -37 -21 -74 -3 -148 -23 -84 -23 14 0 29 -5 33 -11 4 -6
-1 -10 -12 -8 -11 1 -28 -2 -39 -6 -11 -4 -35 -14 -53 -21 -18 -7 -36 -14 -40
-15 -4 -1 -20 -10 -35 -21 -15 -11 -35 -21 -44 -22 -9 -2 -19 -8 -21 -14 -2
-7 3 -10 12 -6 12 5 15 2 10 -10 -3 -9 -10 -16 -14 -16 -5 0 -11 -9 -15 -20
-3 -11 -9 -19 -13 -19 -32 5 -48 -3 -47 -24 1 -13 4 -28 8 -34 4 -6 -2 -13
-14 -16 -12 -3 -18 -10 -15 -15 3 -6 1 -12 -6 -14 -7 -3 -9 -11 -3 -24 4 -10
9 -35 11 -54 2 -19 1 -29 -2 -22 -3 6 -9 10 -14 7 -4 -3 -13 2 -20 10 -7 8
-24 15 -39 15 -23 0 -22 -2 14 -19 43 -19 57 -39 80 -116 14 -46 20 -107 8
-77 -2 6 -11 12 -19 12 -9 0 -13 -4 -10 -8 2 -4 1 -14 -4 -22 -7 -11 -11 -8
-19 13 -6 16 -11 34 -11 40 0 7 -4 6 -10 -3 -6 -10 -10 -11 -10 -3 0 15 -36
39 -73 47 -40 9 -69 -40 -65 -112 3 -59 -5 -67 -21 -21 -6 17 -15 28 -20 25
-5 -3 -9 6 -8 22 1 15 0 50 -1 79 -2 42 -5 51 -17 47 -9 -4 -15 0 -15 10 0 9
-4 16 -10 16 -5 0 -10 -5 -10 -10 0 -15 -44 -30 -51 -17 -4 5 -12 6 -19 2 -8
-5 -4 -11 12 -19 12 -6 25 -20 27 -31 2 -11 8 -24 15 -28 8 -6 8 -10 -1 -14
-7 -2 -13 -9 -13 -15 0 -5 -7 -25 -16 -44 -9 -19 -14 -37 -11 -40 5 -5 27 37
40 76 5 12 6 12 6 -1 2 -33 -29 -91 -45 -85 -8 3 -17 -1 -20 -9 -4 -8 -10 -15
-15 -15 -6 0 -5 9 1 21 7 11 9 23 7 26 -3 3 -12 -8 -21 -24 -18 -33 -19 -30
-7 15 20 70 -26 124 -81 96 -30 -16 -78 -73 -78 -95 0 -8 -5 -21 -11 -29 -7
-11 -9 -6 -6 22 3 20 1 38 -4 40 -16 6 34 124 73 170 34 41 45 48 76 48 36 0
71 14 62 24 -3 2 -34 1 -69 -3 -54 -7 -61 -6 -45 6 28 21 -2 15 -38 -7 -18
-11 -27 -20 -19 -20 11 0 11 -3 1 -15 -7 -8 -16 -13 -20 -10 -13 8 -26 -18
-40 -80 -7 -33 -17 -70 -22 -83 -8 -23 -8 -23 -39 13 -34 38 -57 43 -93 20
-29 -19 -73 -83 -79 -116 -3 -13 -3 0 -1 28 5 61 44 156 80 194 19 20 22 29
13 35 -7 4 -15 2 -17 -4 -2 -7 -18 -19 -36 -26 -29 -12 -33 -19 -45 -80 -7
-36 -17 -69 -22 -72 -5 -3 -9 -15 -9 -27 0 -39 -17 -51 -18 -12 -3 76 -36 91
-89 42 -33 -29 -28 -42 6 -18 26 19 41 19 41 -1 0 -4 -6 -7 -12 -6 -7 2 -12
-5 -12 -14 1 -10 -1 -17 -5 -16 -20 2 -42 -3 -38 -9 3 -5 -4 -17 -14 -27 -19
-19 -19 -19 -19 10 0 17 5 35 12 42 7 7 8 12 3 12 -4 0 1 8 11 18 12 10 20 32
21 57 2 35 0 37 -10 21 -7 -10 -22 -31 -34 -45 l-22 -26 16 55 c8 30 25 64 36
75 l21 20 -17 -21 c-24 -29 -1 -38 32 -13 13 11 33 19 45 19 22 0 46 17 46 32
0 13 -33 9 -64 -7 -48 -25 -42 -9 10 27 26 18 61 45 77 61 17 15 42 27 56 27
14 0 57 7 95 15 58 12 74 21 105 54 20 22 59 49 87 61 27 11 54 27 60 35 26
35 110 95 125 90 9 -3 22 3 30 12 11 15 11 16 -1 6 -31 -29 -31 -10 0 22 36
37 79 52 47 17 -24 -26 -21 -42 8 -42 14 0 25 4 25 9 0 4 11 6 24 4 19 -4 27
2 39 27 11 21 12 30 4 27 -7 -2 -27 3 -46 10 -19 8 -37 11 -40 6 -9 -12 -61
-34 -61 -25 0 15 16 30 38 36 12 4 22 13 22 20 0 19 37 49 50 41 9 -5 10 -1 6
12 -5 15 4 29 33 56 61 55 131 85 131 57 0 -5 11 -10 25 -10 23 0 25 -4 25
-45 0 -25 3 -44 8 -44 19 3 23 -2 12 -16 -20 -24 3 -17 32 10 20 18 28 38 33
79 8 63 3 76 -31 76 -14 0 -23 -4 -19 -9 3 -5 -4 -12 -15 -16 -11 -4 -18 -10
-16 -14 3 -4 -4 -7 -14 -7 -16 0 -17 3 -7 16 7 8 17 21 22 28 33 43 62 62 95
62 19 0 42 5 50 10 12 8 9 10 -12 10 -35 0 -45 16 -16 26 33 11 50 11 78 -2
40 -17 91 -17 104 2 13 18 9 74 -5 74 -5 0 -9 5 -9 10 0 19 79 10 129 -15z
m984 -47 c-6 -41 -6 -41 14 -22 11 10 19 21 17 24 -1 3 9 7 24 8 14 1 31 7 36
12 25 25 23 6 -4 -38 -16 -27 -32 -65 -35 -85 -5 -31 -2 -38 19 -53 28 -18 62
-14 102 12 25 17 44 68 44 118 0 16 2 27 4 25 10 -9 14 -86 6 -99 -6 -9 -3
-19 8 -28 16 -12 15 -13 -3 -7 -11 3 -16 3 -13 -1 9 -8 -39 -47 -50 -40 -4 2
-14 1 -22 -5 -11 -6 -8 -9 12 -9 15 0 30 5 33 10 3 6 11 10 16 10 6 0 4 -7 -5
-15 -17 -17 -152 -22 -141 -5 3 6 -1 10 -9 10 -8 0 -18 4 -21 10 -4 6 1 7 11
3 12 -4 15 -3 10 5 -4 7 -15 12 -26 12 -10 0 -20 7 -24 15 -3 8 -12 15 -20 15
-11 0 -13 10 -8 48 3 26 6 59 5 74 0 15 4 25 8 22 5 -3 9 0 9 5 0 6 2 11 4 11
2 0 2 -19 -1 -42z m-2630 -39 c34 -32 66 -59 71 -59 4 0 21 -11 38 -25 16 -14
36 -25 44 -25 17 0 19 -16 2 -23 -8 -3 -6 -6 5 -6 25 -1 22 -39 -5 -61 -13
-10 -27 -16 -32 -13 -4 3 -2 9 5 14 9 6 0 9 -27 9 -51 0 -54 4 -43 43 8 27 5
35 -18 59 -15 15 -35 30 -45 34 -10 3 -18 13 -18 22 0 22 -29 40 -80 48 l-40
7 22 21 c13 12 31 20 41 17 11 -2 47 -30 80 -62z m925 -18 c14 -39 57 -48 79
-15 17 27 33 23 33 -7 0 -12 -13 -25 -36 -37 -35 -16 -35 -17 -13 -23 13 -4
39 -7 58 -8 l34 -1 -26 -20 c-16 -13 -40 -20 -66 -20 -23 0 -41 -4 -41 -10 0
-10 20 -13 70 -11 14 0 18 -2 10 -5 -8 -3 -22 -8 -30 -11 -8 -3 -24 -5 -35 -4
-16 2 -18 0 -7 -10 20 -22 14 -46 -15 -56 -32 -10 -73 -6 -73 8 0 5 -6 9 -13
9 -21 0 -77 30 -77 42 0 5 9 12 20 15 16 4 18 8 9 19 -9 11 -8 14 1 14 10 0
10 3 0 15 -11 14 -7 19 13 16 4 -1 15 6 24 15 13 12 14 17 3 24 -7 4 -10 12
-7 17 4 6 0 19 -8 29 -26 34 -18 44 34 44 45 0 50 -2 59 -29z m1182 -686 c0
-12 -11 -14 -62 -8 l-62 6 23 -29 c13 -16 30 -29 39 -30 10 0 38 -4 63 -8 30
-5 54 -4 67 3 14 8 29 7 53 -1 28 -9 30 -13 16 -23 -9 -6 -45 -12 -81 -13 -53
-2 -66 1 -66 13 0 8 -4 15 -10 15 -5 0 -7 -7 -3 -16 4 -12 1 -15 -13 -12 -10
2 -18 10 -17 16 5 20 -66 5 -101 -21 -17 -13 -41 -27 -53 -31 -13 -4 -23 -12
-23 -17 0 -5 -8 -9 -17 -9 -17 1 -17 1 0 14 9 7 17 18 17 24 0 7 7 9 17 5 10
-4 14 -2 9 5 -8 13 30 37 59 37 35 0 23 30 -13 33 -26 3 -35 -1 -39 -16 -3
-11 -14 -22 -24 -25 -17 -5 -18 -3 -7 11 11 13 10 15 -10 10 -12 -4 -20 -2
-16 3 3 5 10 9 15 9 6 0 17 7 25 15 9 8 26 15 39 15 13 0 31 7 39 16 12 12 31
15 71 12 30 -1 55 0 55 5 0 4 2 7 5 7 3 0 5 -7 5 -15z m35 -180 c-19 -14 -18
-15 10 -8 17 4 47 7 68 6 43 -1 46 4 15 17 l-23 9 22 0 c12 1 25 -3 28 -9 3
-5 13 -10 22 -10 8 0 24 -11 35 -25 23 -30 74 -36 64 -8 -4 10 -4 14 0 10 4
-3 7 -35 8 -71 1 -55 0 -62 -11 -46 -31 45 -143 83 -143 49 0 -5 -6 -9 -14 -9
-8 0 -16 -6 -19 -14 -3 -8 -16 -20 -29 -27 -13 -6 -20 -9 -17 -5 4 4 -10 26
-32 48 -32 34 -46 41 -86 45 l-48 4 36 -14 c47 -18 106 -60 91 -65 -9 -3 -8
-10 3 -25 17 -24 20 -75 5 -97 -5 -8 -10 -10 -10 -5 0 6 -5 2 -11 -8 -13 -22
-2 -38 11 -17 15 24 11 2 -5 -30 -18 -35 -29 -40 -20 -9 5 15 -5 8 -30 -20
-21 -22 -42 -41 -48 -41 -5 0 2 9 17 21 14 11 26 28 26 37 0 13 -5 11 -20 -8
l-20 -25 13 33 c16 39 7 109 -14 123 -23 15 -72 -1 -108 -35 -19 -17 -32 -24
-29 -16 3 8 8 26 12 40 6 24 -16 -18 -35 -67 -13 -34 -26 -28 -33 15 -6 39 8
107 26 130 6 7 8 15 5 18 -4 5 10 23 65 80 21 23 92 49 107 39 5 -3 11 1 14 7
3 10 9 11 26 1 25 -16 45 -17 36 -3 -3 6 3 10 15 10 14 0 19 4 14 13 -4 6 1 4
12 -5 18 -17 18 -18 -1 -33z m-294 -23 c21 -8 21 -9 -5 -25 -26 -17 -38 -45
-13 -31 6 4 0 -6 -15 -23 -16 -16 -28 -38 -28 -49 0 -25 -10 -38 -37 -53 -16
-8 -23 -8 -23 -1 0 24 -20 -3 -21 -28 -2 -23 -2 -24 -6 -5 -2 12 1 31 7 42 7
14 7 21 0 21 -5 0 -10 11 -10 25 0 56 -87 47 -125 -13 -11 -17 -23 -31 -27
-32 -11 0 0 57 17 87 12 22 14 23 10 6 -9 -31 7 -29 26 4 9 14 36 41 60 60 42
31 47 33 106 28 35 -3 72 -9 84 -13z m476 -92 c18 -10 38 -29 46 -42 20 -31
27 -145 11 -159 -8 -7 -14 -7 -19 1 -10 17 -25 11 -25 -10 0 -11 -3 -20 -7
-20 -5 0 -6 30 -5 66 4 72 -3 84 -48 84 -27 0 -50 -24 -88 -93 l-23 -42 6 40
c3 22 5 59 5 82 -1 33 6 49 31 77 36 42 67 46 116 16z"/>
<path d="M5331 9046 c-13 -16 -42 -106 -33 -106 3 0 17 10 30 23 l25 22 -13
-25 c-12 -24 -12 -24 6 -9 10 9 24 14 31 12 7 -2 21 0 31 6 16 8 21 7 25 -8 3
-11 21 -22 53 -30 27 -7 57 -15 67 -18 11 -3 17 1 17 11 0 9 -5 16 -11 16 -6
0 -29 16 -50 35 -40 36 -128 85 -152 85 -8 0 -20 -6 -26 -14z"/>
<path d="M5838 6527 c-9 -7 -21 -40 -28 -72 -23 -126 -49 -272 -55 -322 l-7
-53 33 0 c63 0 148 31 193 71 53 47 76 101 83 194 4 65 3 73 -25 116 -24 37
-40 50 -78 63 -57 19 -93 20 -116 3z"/>
<path d="M4795 6081 c-95 -23 -155 -91 -155 -174 0 -45 24 -75 70 -87 34 -9
47 -8 85 9 52 23 67 49 84 151 6 36 14 75 16 88 5 20 2 22 -32 21 -21 -1 -51
-4 -68 -8z"/>
<path d="M6785 6131 c-70 -42 -117 -122 -135 -230 -22 -134 8 -264 69 -295 80
-42 164 2 222 114 21 41 23 59 24 185 0 157 -10 190 -68 225 -40 25 -73 25
-112 1z"/>
<path d="M4187 4673 c-20 -3 -27 -9 -23 -19 4 -11 1 -14 -13 -9 -11 3 -22 1
-26 -5 -3 -5 -14 -10 -25 -10 -10 0 -20 -7 -24 -15 -3 -8 -12 -15 -21 -15 -8
0 -15 -9 -15 -19 0 -27 38 -33 104 -16 31 8 59 15 61 15 15 0 2 20 -12 20 -13
1 49 29 65 30 1 0 2 11 2 25 0 26 -6 28 -73 18z"/>
<path d="M6580 10228 c88 -37 233 -118 164 -91 -28 10 -7 -15 27 -32 55 -29
91 -141 59 -180 -8 -10 -44 -37 -80 -61 -36 -24 -60 -44 -54 -44 5 0 15 5 21
11 8 8 13 8 17 0 4 -6 2 -11 -4 -11 -6 0 -9 -4 -6 -9 3 -5 -1 -14 -9 -21 -8
-7 -15 -25 -15 -41 0 -23 5 -29 21 -29 15 0 19 -4 15 -16 -3 -9 -6 -20 -6 -25
0 -5 -6 -8 -12 -7 -8 2 -13 -8 -12 -24 0 -16 -4 -28 -8 -28 -22 0 -4 -33 26
-45 36 -15 86 -68 86 -90 0 -26 -20 -65 -33 -65 -10 0 -47 -33 -47 -43 0 -9
65 -5 71 4 4 7 18 13 31 14 13 1 24 9 26 19 4 21 33 56 45 56 5 0 5 -9 2 -20
-4 -14 -2 -20 8 -20 9 0 17 4 19 10 2 5 9 6 16 1 7 -4 10 -15 7 -23 -9 -22
-45 -30 -52 -12 -3 8 -9 12 -14 9 -19 -12 5 -33 44 -38 23 -3 43 -11 45 -16 6
-18 22 -13 22 7 0 12 3 13 8 5 5 -7 37 -16 73 -19 35 -4 73 -11 84 -16 20 -9
20 -9 1 6 -11 9 -29 16 -40 16 -33 0 -66 12 -61 20 3 5 30 14 60 20 71 15 102
49 103 114 1 45 -14 69 -28 46 -5 -9 -19 -10 -45 -6 -43 8 -37 18 19 36 32 10
40 10 47 -1 6 -10 9 -4 9 18 0 17 -5 35 -11 39 -8 4 -9 0 -4 -15 4 -12 2 -21
-4 -21 -6 0 -11 4 -11 9 0 5 -32 7 -72 4 -57 -4 -80 -10 -105 -29 -18 -14 -33
-32 -33 -40 0 -7 -6 -14 -14 -14 -7 0 -16 -9 -19 -20 -9 -35 -32 -32 -75 10
-43 41 -54 70 -27 70 8 0 15 6 15 13 0 8 9 22 19 31 10 10 21 27 24 38 5 18 2
20 -26 14 l-32 -6 25 16 c23 14 23 14 3 9 -13 -4 -23 -2 -23 4 0 6 25 18 55
26 30 9 57 21 60 26 8 12 4 12 -40 -7 -20 -8 -56 -14 -78 -12 -40 3 -42 4 -39
33 1 17 2 39 2 50 1 13 3 16 9 7 8 -13 38 15 60 56 15 29 14 79 -3 85 -7 3
-16 16 -19 29 -6 22 -5 22 8 4 8 -11 15 -15 15 -9 0 22 -12 43 -25 43 -7 0
-20 11 -29 25 -10 14 -28 31 -42 37 -13 6 -24 16 -24 22 0 14 -95 72 -151 91
-47 17 -77 19 -39 3z"/>
<path d="M6440 10144 c30 -14 32 -18 16 -23 -13 -5 2 -13 55 -29 78 -23 139
-55 139 -72 0 -20 -50 -29 -165 -31 -113 -1 -116 -2 -99 -20 18 -20 91 -28 79
-9 -5 8 9 12 55 12 3 1 32 -2 65 -6 41 -4 55 -3 45 4 -17 11 -14 12 45 14 28
1 30 4 28 35 -1 19 -10 46 -21 60 -23 32 -68 58 -79 47 -4 -5 -2 -11 5 -13 6
-3 12 -9 12 -13 0 -10 -56 17 -78 38 -7 6 -30 12 -50 12 -20 0 -48 3 -62 5
-18 4 -15 1 10 -11z"/>
<path d="M6011 10085 c38 -12 47 -20 56 -48 11 -37 2 -74 -22 -83 -8 -4 -15
-12 -15 -19 0 -7 -7 -16 -15 -19 -12 -4 -14 -10 -5 -25 13 -26 13 -31 -5 -31
-9 0 -15 -9 -15 -24 0 -13 -6 -27 -12 -30 -7 -3 -5 -4 5 -3 15 2 19 -6 22 -41
3 -37 0 -45 -26 -64 -16 -12 -29 -26 -29 -31 0 -5 7 -4 15 3 8 6 20 10 27 8 7
-3 18 1 23 8 6 8 26 16 45 18 19 3 46 8 60 11 20 5 22 4 10 -4 -12 -9 -10 -11
10 -9 36 4 38 -28 4 -63 -23 -24 -36 -29 -78 -30 -28 0 -44 -3 -36 -6 8 -2 25
-9 37 -15 28 -14 84 -3 117 23 38 30 37 88 -3 112 -15 9 -31 14 -35 10 -3 -3
-6 -1 -6 5 0 17 31 15 52 -5 23 -20 32 -12 24 22 -6 22 -9 24 -26 15 -16 -9
-20 -8 -20 5 0 8 5 15 12 15 6 0 9 2 6 5 -2 3 -20 0 -38 -6 -25 -9 -37 -9 -51
0 -22 13 -39 14 -39 2 0 -5 15 -12 33 -16 l32 -8 -29 -4 c-38 -6 -51 8 -39 44
9 26 13 28 59 26 54 -2 57 -4 -46 25 -28 8 -39 44 -20 68 14 16 60 18 107 5
l33 -10 -16 30 c-8 16 -20 27 -25 23 -8 -4 -7 -10 2 -16 12 -8 12 -9 0 -6 -8
2 -20 20 -27 40 l-12 37 61 -40 c34 -21 68 -43 75 -49 8 -7 12 -7 12 -1 0 11
-73 61 -89 61 -5 0 -24 14 -42 31 -46 43 -98 69 -134 68 -27 0 -25 -2 16 -14z"/>
<path d="M7078 9332 c-10 -2 -18 -8 -18 -13 0 -5 -7 -9 -16 -9 -8 0 -12 -4 -9
-10 3 -5 14 -10 24 -10 15 0 13 -7 -14 -36 -32 -34 -38 -37 -104 -40 -78 -4
-111 -18 -111 -50 0 -23 31 -64 49 -64 6 0 11 -5 11 -11 0 -5 -4 -8 -9 -4 -5
3 -12 1 -15 -4 -3 -5 2 -12 12 -16 16 -6 16 -7 -2 -20 -22 -17 -15 -45 13 -45
10 0 21 -6 24 -14 3 -8 16 -16 29 -18 19 -2 23 -9 21 -32 -1 -16 -13 -45 -26
-65 -33 -51 -37 -64 -21 -86 11 -15 26 -19 69 -19 52 1 56 -1 62 -25 10 -46
48 -77 73 -61 10 6 9 13 -8 35 -12 15 -19 31 -17 35 3 5 1 12 -5 15 -8 5 -7
11 1 21 6 7 16 11 22 7 6 -3 7 -1 3 5 -4 7 -3 12 3 12 5 0 11 -5 13 -12 3 -7
12 -9 22 -5 9 4 14 11 11 17 -3 5 1 10 10 10 11 0 15 5 11 15 -3 10 1 15 12
16 14 0 14 2 -3 9 -13 6 -15 9 -5 9 9 1 11 4 5 9 -5 4 -17 16 -25 26 -14 18
-13 19 3 13 25 -9 21 4 -13 41 -16 18 -30 35 -30 36 0 2 15 2 33 0 20 -3 27
-1 18 5 -10 6 -4 15 24 36 23 18 32 31 24 35 -7 5 -7 10 -2 13 19 12 45 115
34 134 -10 17 -10 17 -11 -1 0 -12 -5 -16 -16 -12 -12 4 -15 2 -10 -9 3 -8 1
-15 -4 -15 -6 0 -11 6 -11 13 -1 6 -2 19 -3 27 -1 16 -60 18 -121 5 -23 -5
-26 -4 -15 4 13 10 13 12 0 21 -12 8 -12 10 5 10 12 0 28 12 38 30 14 24 15
29 3 24 -8 -3 -16 1 -18 8 -1 7 -11 12 -20 10z m-154 -167 c20 -8 36 -20 36
-26 0 -11 41 -2 50 11 5 7 59 18 110 23 41 3 39 -35 -2 -51 -18 -7 -40 -17
-49 -22 -9 -5 -36 -6 -60 -4 -24 3 -62 7 -85 7 -50 2 -80 23 -63 44 10 11 9
12 -5 7 -9 -3 -16 -2 -16 4 0 11 16 20 36 21 6 1 28 -6 48 -14z"/>
<path d="M6741 9312 c-19 -2 -40 -9 -47 -17 -13 -13 -33 -21 -149 -63 -42 -15
-51 -22 -53 -45 -4 -36 40 -84 92 -98 l39 -11 -6 -84 -6 -84 25 0 c13 0 34 6
47 13 50 28 57 39 57 91 0 35 -3 46 -9 37 -8 -12 -11 -10 -16 10 -3 13 -7 38
-9 54 -5 42 -5 42 -16 25 -9 -13 -12 -13 -24 3 -7 9 -25 17 -40 17 -14 0 -26
4 -26 8 0 11 135 45 152 39 8 -4 7 -6 -4 -6 -17 -1 -27 -31 -10 -31 16 0 71
40 117 84 49 48 55 71 10 42 -25 -16 -65 -14 -65 4 0 12 -20 16 -59 12z"/>
<path d="M2548 8883 c-28 -33 -38 -62 -44 -125 -2 -35 -9 -88 -15 -118 -5 -30
-12 -125 -15 -210 -7 -238 -12 -281 -34 -287 -12 -3 -17 -11 -13 -21 4 -15 3
-15 -10 0 -8 10 -16 15 -19 12 -8 -7 -20 154 -13 166 13 21 14 74 2 82 -38 24
-91 -13 -89 -64 0 -15 -3 -30 -7 -33 -16 -9 -13 -179 4 -218 16 -39 77 -87
111 -87 20 0 21 -4 18 -57 -6 -108 -16 -188 -25 -199 -13 -16 16 -26 55 -18
18 3 51 -1 76 -10 25 -9 52 -16 61 -16 9 0 27 -10 41 -22 13 -13 37 -24 52
-26 38 -4 25 14 -22 29 -20 6 -43 16 -49 22 -15 11 -17 47 -3 47 6 0 8 10 5
23 -8 37 45 84 81 70 14 -5 16 -3 11 11 -4 9 -3 15 2 12 18 -11 61 21 80 59
29 57 47 313 24 336 -13 13 -56 -14 -63 -41 -4 -14 -13 -50 -20 -80 -12 -55
-58 -127 -94 -150 -10 -6 -16 -7 -13 -2 4 4 8 61 11 126 3 64 8 121 11 126 3
5 8 33 10 62 2 29 6 69 9 88 3 19 8 54 11 78 4 23 10 40 16 37 5 -4 9 -1 9 4
0 6 -4 11 -10 11 -6 0 -7 21 -4 53 4 28 7 63 9 77 1 14 3 27 4 30 2 3 4 41 5
85 3 71 0 84 -22 118 -14 20 -28 37 -32 37 -11 0 -17 -70 -36 -370 -15 -246
-22 -317 -23 -236 -1 36 23 440 33 554 l5 52 -33 0 c-19 0 -39 -8 -48 -17z
m128 -150 c-9 -149 -23 -292 -36 -363 -6 -30 -15 -95 -19 -145 l-8 -90 -1 80
c-1 44 3 112 9 150 5 39 12 106 14 150 11 219 17 321 22 328 2 4 9 7 15 7 8 0
9 -35 4 -117z"/>
<path d="M6715 7454 c-14 -11 -15 -14 -4 -18 8 -3 48 -17 89 -32 41 -14 94
-39 117 -55 39 -25 44 -27 58 -12 26 25 13 46 -40 68 -28 11 -52 23 -53 28 -7
15 -72 36 -110 35 -21 0 -46 -6 -57 -14z"/>
<path d="M6262 7424 c-35 -17 -54 -34 -58 -50 -10 -41 1 -54 48 -54 80 0 149
58 113 94 -19 19 -19 24 3 29 9 3 1 5 -19 6 -20 1 -57 -10 -87 -25z"/>
<path d="M8004 7246 c-4 -11 -7 -39 -8 -63 0 -29 -3 -40 -10 -33 -14 14 -22
13 -40 -6 -9 -8 -16 -11 -16 -5 0 5 -12 8 -26 5 -22 -4 -25 -2 -20 18 3 13 -3
5 -13 -17 -11 -22 -20 -46 -20 -52 -1 -15 -51 -18 -51 -4 0 9 -56 -2 -67 -13
-3 -3 15 -10 38 -16 24 -7 46 -15 49 -19 3 -5 20 -11 38 -14 28 -6 37 -2 58
21 14 15 40 34 57 43 18 8 31 20 30 27 -2 6 3 9 11 6 17 -7 41 76 31 113 -4
19 -9 23 -14 14 -7 -11 -10 -11 -14 0 -3 10 -7 9 -13 -5z"/>
<path d="M5981 7131 c-16 -12 -25 -31 -28 -63 -5 -41 -3 -48 21 -63 32 -21 96
-14 140 14 16 11 34 18 40 17 6 -2 8 -1 4 1 -5 3 -6 14 -3 26 7 30 -12 50 -63
70 -54 22 -81 21 -111 -2z"/>
<path d="M6222 7058 c-7 -7 -12 -15 -12 -20 0 -12 51 -34 112 -47 32 -7 60
-16 63 -21 3 -5 -12 -21 -35 -35 -45 -29 -49 -39 -19 -56 22 -11 113 -8 126 4
14 14 3 69 -19 96 -13 16 -39 36 -58 45 -19 9 -46 23 -60 31 -30 18 -82 19
-98 3z"/>
<path d="M7722 5920 c-38 -16 -92 -62 -85 -73 4 -6 0 -8 -11 -4 -19 7 -36 -21
-19 -32 5 -3 15 -15 21 -26 9 -17 5 -25 -21 -51 -18 -17 -36 -38 -42 -45 -5
-8 -23 -31 -38 -52 -29 -39 -23 -52 8 -17 10 11 24 20 32 20 7 0 13 4 13 9 0
13 61 73 67 67 6 -6 91 39 108 56 6 5 -6 3 -26 -5 -32 -13 -36 -13 -36 1 0 8
9 17 19 20 10 2 18 8 18 13 0 5 6 9 13 9 18 0 62 48 54 57 -4 4 -20 -3 -35
-14 -21 -15 -30 -17 -39 -8 -8 9 -6 15 10 24 15 10 17 15 7 21 -9 5 -6 12 11
24 26 18 9 21 -29 6z"/>
<path d="M2480 5515 c7 -8 19 -15 27 -15 8 0 13 -6 10 -13 -5 -13 31 -43 46
-39 5 1 6 -2 2 -8 -9 -14 -43 -12 -52 3 -9 15 -38 28 -46 20 -12 -11 16 -63
34 -63 10 0 19 5 19 10 0 6 9 10 20 10 19 0 19 -1 -3 -26 -21 -25 -95 -65
-167 -90 -22 -7 -28 -12 -15 -13 10 -1 53 15 95 34 41 19 107 46 145 61 39 15
79 33 90 40 19 14 19 14 0 15 -11 1 -24 2 -30 4 -5 1 -14 3 -20 4 -5 1 -4 5 4
10 9 6 -1 13 -35 26 -27 9 -61 23 -76 31 -14 8 -34 14 -43 14 -14 0 -15 -3 -5
-15z"/>
<path d="M6770 4717 c48 -16 39 -33 -15 -30 -25 2 -45 0 -45 -5 1 -19 39 -49
78 -60 23 -7 42 -18 42 -25 0 -10 14 -11 65 -3 38 5 62 13 58 19 -3 6 -1 7 6
3 14 -9 91 2 91 13 0 4 -24 8 -52 10 -90 4 -133 18 -171 56 -24 24 -44 35 -63
34 -28 0 -28 0 6 -12z"/>
</g>
</svg>
